<?xml version="1.0" encoding="utf-8"?>
<!-- Generator: Adobe Illustrator 16.0.0, SVG Export Plug-In . SVG Version: 6.00 Build 0)  -->
<!DOCTYPE svg PUBLIC "-//W3C//DTD SVG 1.1//EN" "http://www.w3.org/Graphics/SVG/1.1/DTD/svg11.dtd">
<svg version="1.1" id="Layer_1" xmlns="http://www.w3.org/2000/svg" xmlns:xlink="http://www.w3.org/1999/xlink" x="0px" y="0px"
	 width="20px" height="20px" viewBox="0 0 20 20" enable-background="new 0 0 20 20" xml:space="preserve">
<path display="none" fill="#FF0000" d="M22.353,9.857c0-6.973-5.651-12.626-12.626-12.626c-6.971,0-12.624,5.653-12.624,12.626
	c0,6.975,5.653,12.626,12.624,12.626C16.701,22.483,22.353,16.832,22.353,9.857"/>
<path fill="#FFFFFF" d="M11.674,3.968l-0.55,0.225c0.218,0.005,0.439,0.011,0.681,0.011c1.546,0,2.613-0.138,3.229-0.286h-2.92
	c-0.074,0.043-0.179,0.067-0.309,0.067C11.75,3.986,11.716,3.975,11.674,3.968"/>
<path fill="#FFFFFF" d="M11.276,3.68l-0.923-0.415C8.977,3.358,8.199,3.572,8.029,3.71c0.162,0.133,0.874,0.331,2.123,0.431
	L11.276,3.68z"/>
<path fill="#FFFFFF" d="M11.804,3.436c0.145,0,0.231,0.03,0.297,0.066h2.932c-0.613-0.146-1.682-0.285-3.229-0.285
	c-0.185,0-0.351,0.005-0.522,0.008l0.48,0.216C11.777,3.442,11.786,3.436,11.804,3.436"/>
<defs>
	<filter id="Adobe_OpacityMaskFilter" filterUnits="userSpaceOnUse" x="8.008" y="4.153" width="7.627" height="4.223">
		
			<feColorMatrix  type="matrix" values="-1 0 0 0 1  0 -1 0 0 1  0 0 -1 0 1  0 0 0 1 0" color-interpolation-filters="sRGB" result="source"/>
		<feFlood  style="flood-color:white;flood-opacity:1" result="back"/>
		<feBlend  in="source" in2="back" mode="normal"/>
	</filter>
</defs>
<mask maskUnits="userSpaceOnUse" x="8.008" y="4.153" width="7.627" height="4.223" id="SVGID_1_">
	<g filter="url(#Adobe_OpacityMaskFilter)">
		<path fill="#2CA9E1" d="M12.815,7.594h-1.624V7.258c0.111-0.097,0.226-0.194,0.338-0.291c0.114-0.096,0.221-0.192,0.317-0.289
			c0.208-0.2,0.349-0.359,0.423-0.476c0.078-0.118,0.117-0.246,0.117-0.381c0-0.125-0.042-0.222-0.126-0.293
			c-0.08-0.069-0.196-0.104-0.342-0.104c-0.099,0-0.204,0.017-0.318,0.05c-0.114,0.035-0.226,0.088-0.334,0.159h-0.016V5.294
			c0.076-0.039,0.179-0.073,0.306-0.104c0.126-0.032,0.249-0.047,0.368-0.047c0.248,0,0.439,0.06,0.58,0.178
			c0.14,0.12,0.21,0.28,0.21,0.482c0,0.092-0.012,0.177-0.036,0.256c-0.022,0.079-0.057,0.155-0.101,0.224
			c-0.042,0.067-0.092,0.133-0.149,0.197c-0.055,0.064-0.124,0.136-0.204,0.215c-0.116,0.113-0.234,0.221-0.356,0.327
			s-0.237,0.205-0.343,0.295h1.29V7.594z"/>
	</g>
</mask>
<path mask="url(#SVGID_1_)" fill="#FFFFFF" d="M8.008,4.155v0.081v0.25v3.392c0.237,0.212,1.646,0.498,3.796,0.498
	c2.244,0,3.682-0.306,3.817-0.517l0.014-0.028V4.378V4.236V4.153c-0.952,0.438-3.271,0.467-3.831,0.467
	C11.249,4.621,8.955,4.591,8.008,4.155"/>
<defs>
	<filter id="Adobe_OpacityMaskFilter_1_" filterUnits="userSpaceOnUse" x="7.592" y="2.801" width="8.458" height="5.991">
		<feColorMatrix  type="matrix" values="1 0 0 0 0  0 1 0 0 0  0 0 1 0 0  0 0 0 1 0"/>
	</filter>
</defs>
<mask maskUnits="userSpaceOnUse" x="7.592" y="2.801" width="8.458" height="5.991" id="SVGID_2_">
	<g filter="url(#Adobe_OpacityMaskFilter_1_)">
	</g>
</mask>
<path mask="url(#SVGID_2_)" fill="#2CA9E1" d="M16.05,3.711L16.05,3.711c0-0.866-3.537-0.911-4.246-0.911
	c-0.702,0-4.211,0.044-4.211,0.91v4.238l0.025,0.099c0.393,0.724,3.801,0.745,4.187,0.745c0.371,0,3.465-0.019,4.105-0.636h0.142
	L16.05,3.711L16.05,3.711z M11.804,3.217c1.547,0,2.615,0.138,3.229,0.285H12.1c-0.064-0.037-0.15-0.067-0.296-0.067
	c-0.019,0-0.026,0.006-0.042,0.006l-0.48-0.215C11.453,3.223,11.619,3.217,11.804,3.217 M15.032,3.919
	c-0.613,0.147-1.682,0.285-3.229,0.285c-0.239,0-0.462-0.005-0.679-0.012l0.55-0.225c0.042,0.006,0.075,0.019,0.129,0.019
	c0.131,0,0.235-0.025,0.31-0.068H15.032z M10.354,3.265l0.923,0.415l-1.125,0.461C8.903,4.041,8.19,3.843,8.03,3.71
	C8.199,3.572,8.977,3.358,10.354,3.265 M15.635,4.378v3.453l-0.013,0.028c-0.136,0.212-1.573,0.517-3.818,0.517
	c-2.149,0-3.559-0.286-3.796-0.498V4.486v-0.25V4.154c0.947,0.438,3.242,0.466,3.796,0.466c0.561,0,2.878-0.029,3.831-0.468v0.083
	V4.378z"/>
<path fill="#FFFFFF" d="M5.131,7.882c-0.043,0-0.087,0-0.122-0.008H5.001L4.083,8.247c0.329,0.008,0.675,0.017,1.049,0.017
	c2.081,0,3.519-0.225,4.196-0.451H5.46C5.382,7.855,5.269,7.882,5.131,7.882"/>
<path fill="#FFFFFF" d="M5.062,7.336c0.026-0.008,0.043-0.008,0.07-0.008c0.138,0,0.251,0.025,0.329,0.068h3.893
	C8.711,7.206,7.316,6.98,5.131,6.98c-0.278,0-0.547,0-0.798,0.018l0.72,0.338H5.062z"/>
<path fill="#FFFFFF" d="M3.12,8.177l1.491-0.589L3.433,7.032C1.58,7.152,0.629,7.444,0.532,7.618v0.008
	c0.097,0.157,1.004,0.422,2.588,0.56V8.177z"/>
<defs>
	<filter id="Adobe_OpacityMaskFilter_2_" filterUnits="userSpaceOnUse" x="0.531" y="8.072" width="9.229" height="4.062">
		
			<feColorMatrix  type="matrix" values="-1 0 0 0 1  0 -1 0 0 1  0 0 -1 0 1  0 0 0 1 0" color-interpolation-filters="sRGB" result="source"/>
		<feFlood  style="flood-color:white;flood-opacity:1" result="back"/>
		<feBlend  in="source" in2="back" mode="normal"/>
	</filter>
</defs>
<mask maskUnits="userSpaceOnUse" x="0.531" y="8.072" width="9.229" height="4.062" id="SVGID_3_">
	<g filter="url(#Adobe_OpacityMaskFilter_2_)">
		<path fill="#2CA9E1" d="M5.348,11.746H4.047V11.5h0.501V9.894H4.047v-0.22c0.069,0,0.141-0.006,0.219-0.018
			c0.077-0.012,0.135-0.028,0.175-0.05c0.05-0.025,0.088-0.059,0.117-0.103c0.029-0.042,0.045-0.097,0.049-0.165h0.25V11.5h0.49
			V11.746z"/>
	</g>
</mask>
<path mask="url(#SVGID_3_)" fill="#FFFFFF" d="M0.531,8.072v3.395l0.015,0.021c0.111,0.218,1.615,0.646,4.584,0.646
	c2.748,0,4.477-0.391,4.622-0.658l0.008-0.015V8.177V8.078C8.588,8.667,5.301,8.68,5.131,8.68C3.772,8.68,1.469,8.54,0.531,8.072"/>
<defs>
	<filter id="Adobe_OpacityMaskFilter_3_" filterUnits="userSpaceOnUse" x="0.111" y="6.564" width="10.066" height="5.987">
		<feColorMatrix  type="matrix" values="1 0 0 0 0  0 1 0 0 0  0 0 1 0 0  0 0 0 1 0"/>
	</filter>
</defs>
<mask maskUnits="userSpaceOnUse" x="0.111" y="6.564" width="10.066" height="5.987" id="SVGID_4_">
	<g filter="url(#Adobe_OpacityMaskFilter_3_)">
	</g>
</mask>
<path mask="url(#SVGID_4_)" fill="#2CA9E1" d="M10.135,7.461C9.724,6.589,5.617,6.564,5.131,6.564c-0.174,0-0.832,0-1.612,0.052
	c-1.367,0.08-3.088,0.297-3.354,0.846H0.115v0.134c0,0.003-0.004,0.006-0.004,0.009c0,0.006,0.004,0.011,0.004,0.015v3.854
	l0.034,0.309h0.104c0.588,0.604,3.287,0.77,4.876,0.77c1.586,0,4.299-0.166,4.905-0.77h0.142v-4.32H10.135z M5.131,6.98
	c2.185,0,3.58,0.226,4.221,0.417H5.46C5.382,7.353,5.269,7.328,5.131,7.328c-0.027,0-0.043,0-0.07,0.008H5.053L4.333,6.998
	C4.585,6.98,4.854,6.98,5.131,6.98 M9.327,7.812C8.651,8.038,7.212,8.263,5.131,8.263c-0.374,0-0.721-0.009-1.05-0.017l0.92-0.373
	H5.01c0.035,0.008,0.078,0.008,0.122,0.008c0.138,0,0.251-0.026,0.329-0.069H9.327z M4.611,7.587L3.12,8.176v0.009
	c-1.583-0.137-2.49-0.403-2.588-0.559V7.619c0.098-0.174,1.048-0.466,2.9-0.586L4.611,7.587z M9.76,11.46l-0.007,0.016
	c-0.146,0.269-1.875,0.657-4.624,0.657c-2.969,0-4.472-0.428-4.583-0.646l-0.014-0.02V8.071c0.937,0.469,3.241,0.608,4.6,0.608
	c0.17,0,3.456-0.012,4.629-0.601v0.098V11.46z"/>
<path fill="#FFFFFF" d="M14.694,8.497c0.156,0,0.269,0.035,0.347,0.087h4.169c-0.693-0.225-2.244-0.476-4.516-0.476
	c-0.347,0-0.676,0.008-0.988,0.017l0.84,0.381C14.589,8.497,14.642,8.497,14.694,8.497"/>
<polygon fill="#FFFFFF" points="14.182,8.784 14.165,8.784 14.182,8.792 "/>
<path fill="#FFFFFF" d="M14.694,9.079c-0.044,0-0.079,0-0.114-0.009l-1.048,0.407c0.363,0.009,0.753,0.017,1.162,0.017
	c2.357,0,3.927-0.259,4.586-0.502h-4.223C14.979,9.053,14.851,9.079,14.694,9.079"/>
<defs>
	<filter id="Adobe_OpacityMaskFilter_4_" filterUnits="userSpaceOnUse" x="9.795" y="9.277" width="9.832" height="4.362">
		
			<feColorMatrix  type="matrix" values="-1 0 0 0 1  0 -1 0 0 1  0 0 -1 0 1  0 0 0 1 0" color-interpolation-filters="sRGB" result="source"/>
		<feFlood  style="flood-color:white;flood-opacity:1" result="back"/>
		<feBlend  in="source" in2="back" mode="normal"/>
	</filter>
</defs>
<mask maskUnits="userSpaceOnUse" x="9.795" y="9.277" width="9.832" height="4.362" id="SVGID_5_">
	<g filter="url(#Adobe_OpacityMaskFilter_4_)">
		<path fill="#2CA9E1" d="M15.597,12.052c0.053,0.045,0.094,0.104,0.126,0.174c0.034,0.068,0.052,0.159,0.052,0.27
			s-0.021,0.21-0.061,0.302c-0.038,0.091-0.096,0.17-0.169,0.239c-0.079,0.073-0.174,0.13-0.283,0.166s-0.229,0.054-0.358,0.054
			c-0.134,0-0.264-0.016-0.393-0.047c-0.128-0.031-0.235-0.066-0.317-0.104v-0.338h0.024c0.09,0.061,0.197,0.111,0.322,0.15
			c0.122,0.039,0.242,0.061,0.357,0.061c0.067,0,0.14-0.012,0.215-0.035c0.077-0.022,0.139-0.056,0.186-0.099
			c0.051-0.048,0.086-0.1,0.109-0.157c0.025-0.059,0.039-0.13,0.039-0.217c0-0.084-0.016-0.156-0.042-0.213
			c-0.029-0.057-0.065-0.102-0.113-0.134c-0.049-0.033-0.107-0.056-0.178-0.067c-0.069-0.012-0.141-0.02-0.222-0.02h-0.146v-0.266
			h0.114c0.163,0,0.293-0.035,0.391-0.104s0.145-0.169,0.145-0.3c0-0.058-0.012-0.109-0.035-0.15
			c-0.024-0.045-0.06-0.082-0.104-0.108c-0.046-0.028-0.095-0.048-0.147-0.058c-0.053-0.011-0.112-0.016-0.179-0.016
			c-0.103,0-0.212,0.018-0.326,0.054c-0.115,0.037-0.222,0.089-0.325,0.154h-0.016v-0.337c0.075-0.036,0.176-0.071,0.304-0.104
			c0.129-0.032,0.251-0.048,0.371-0.048c0.117,0,0.22,0.011,0.31,0.032c0.09,0.021,0.169,0.056,0.242,0.104
			c0.076,0.051,0.135,0.113,0.176,0.188c0.037,0.072,0.058,0.158,0.058,0.256c0,0.133-0.045,0.249-0.141,0.35
			c-0.092,0.099-0.205,0.161-0.332,0.188v0.022c0.052,0.008,0.111,0.026,0.176,0.054C15.493,11.976,15.549,12.011,15.597,12.052"/>
	</g>
</mask>
<path mask="url(#SVGID_5_)" fill="#FFFFFF" d="M9.795,9.277v3.624l0.009,0.018c0.129,0.252,1.873,0.721,4.889,0.721
	c2.931,0,4.77-0.427,4.916-0.721l0.018-0.026V9.277c-1.223,0.626-4.751,0.634-4.934,0.634C14.512,9.911,11.018,9.903,9.795,9.277"/>
<path fill="#FFFFFF" d="M12.544,9.408l1.62-0.625l-1.36-0.607c-1.856,0.13-2.896,0.443-3.008,0.634
	c-0.009,0-0.009,0.008-0.009,0.008s0,0.008,0.009,0.008C9.899,8.992,10.853,9.271,12.544,9.408"/>
<defs>
	<filter id="Adobe_OpacityMaskFilter_5_" filterUnits="userSpaceOnUse" x="9.379" y="7.691" width="10.664" height="6.364">
		<feColorMatrix  type="matrix" values="1 0 0 0 0  0 1 0 0 0  0 0 1 0 0  0 0 0 1 0"/>
	</filter>
</defs>
<mask maskUnits="userSpaceOnUse" x="9.379" y="7.691" width="10.664" height="6.364" id="SVGID_6_">
	<g filter="url(#Adobe_OpacityMaskFilter_5_)">
	</g>
</mask>
<path mask="url(#SVGID_6_)" fill="#2CA9E1" d="M20.008,8.663c-0.424-0.954-5.106-0.972-5.313-0.972c-0.208,0-4.864,0.018-5.28,0.972
	C9.388,8.706,9.379,8.749,9.379,8.801v4.144l0.026,0.268h0.112c0.556,0.573,3.009,0.842,5.177,0.842
	c2.175,0,4.646-0.269,5.201-0.842h0.147V8.801C20.043,8.749,20.034,8.706,20.008,8.663 M14.694,8.107
	c2.271,0,3.822,0.251,4.516,0.478h-4.169c-0.079-0.052-0.191-0.087-0.347-0.087c-0.053,0-0.105,0-0.148,0.009l-0.84-0.381
	C14.018,8.116,14.347,8.107,14.694,8.107 M19.28,8.992c-0.659,0.244-2.229,0.503-4.586,0.503c-0.408,0-0.799-0.009-1.161-0.019
	L14.58,9.07c0.035,0.009,0.07,0.009,0.114,0.009c0.155,0,0.285-0.026,0.362-0.087H19.28z M14.165,8.784h0.017v0.008L14.165,8.784
	l-1.621,0.625c-1.691-0.14-2.645-0.417-2.749-0.582c-0.008,0-0.008-0.009-0.008-0.009s0-0.009,0.008-0.009
	c0.113-0.19,1.153-0.503,3.009-0.633L14.165,8.784z M19.627,12.893l-0.018,0.026c-0.146,0.294-1.984,0.72-4.915,0.72
	c-3.018,0-4.76-0.468-4.891-0.72L9.795,12.9V9.278c1.223,0.625,4.716,0.633,4.899,0.633c0.182,0,3.71-0.008,4.933-0.633V12.893z"/>
<path fill="#FFFFFF" d="M3.988,16.343h0.791l-0.241-0.785c-0.074-0.24-0.129-0.436-0.165-0.588c-0.03,0.183-0.072,0.363-0.126,0.542
	L3.988,16.343z M3.32,17.509l0.897-2.837h0.328l0.953,2.837H5.147L4.875,16.65H3.897l-0.253,0.858H3.32z"/>
<path fill="#FFFFFF" d="M5.889,16.482c0,0.267,0.046,0.463,0.14,0.592c0.091,0.129,0.2,0.194,0.322,0.194
	c0.122,0,0.227-0.062,0.316-0.187c0.087-0.123,0.132-0.311,0.132-0.561c0-0.288-0.045-0.499-0.132-0.63
	c-0.089-0.132-0.202-0.199-0.338-0.199c-0.121,0-0.223,0.064-0.31,0.191C5.932,16.011,5.889,16.211,5.889,16.482 M6.792,17.509
	V17.25c-0.051,0.099-0.118,0.175-0.2,0.226c-0.08,0.053-0.168,0.079-0.263,0.079c-0.198,0-0.369-0.095-0.515-0.281
	c-0.146-0.188-0.217-0.452-0.217-0.792c0-0.234,0.031-0.432,0.097-0.595c0.064-0.161,0.149-0.282,0.258-0.361
	c0.107-0.078,0.226-0.118,0.358-0.118c0.093,0,0.181,0.025,0.261,0.076c0.082,0.048,0.148,0.117,0.201,0.207v-1.019H7.06v2.837
	H6.792z"/>
<path fill="#FFFFFF" d="M7.979,17.509l-0.641-2.056H7.64l0.363,1.229c0.042,0.14,0.077,0.28,0.108,0.415
	c0.024-0.108,0.061-0.238,0.104-0.391l0.376-1.254h0.294l-0.64,2.056H7.979z"/>
<path fill="#FFFFFF" d="M10.207,16.478c-0.104,0.051-0.26,0.095-0.466,0.132c-0.12,0.021-0.205,0.043-0.251,0.069
	c-0.049,0.026-0.084,0.065-0.111,0.113c-0.027,0.047-0.041,0.104-0.041,0.167c0,0.098,0.031,0.177,0.091,0.235
	c0.061,0.059,0.146,0.088,0.252,0.088c0.102,0,0.193-0.027,0.278-0.08c0.083-0.053,0.145-0.123,0.187-0.211
	c0.04-0.089,0.062-0.218,0.062-0.387V16.478z M10.23,17.255c-0.096,0.1-0.194,0.174-0.299,0.224
	c-0.103,0.05-0.209,0.076-0.321,0.076c-0.176,0-0.315-0.054-0.419-0.159c-0.105-0.105-0.157-0.248-0.157-0.427
	c0-0.119,0.025-0.225,0.074-0.316c0.05-0.091,0.117-0.163,0.202-0.214c0.084-0.052,0.214-0.09,0.387-0.113
	c0.231-0.034,0.402-0.075,0.51-0.124l0.002-0.088c0-0.14-0.025-0.239-0.075-0.296c-0.072-0.082-0.181-0.124-0.327-0.124
	c-0.133,0-0.232,0.028-0.297,0.084c-0.067,0.054-0.115,0.157-0.147,0.309l-0.279-0.047c0.039-0.219,0.12-0.38,0.242-0.481
	c0.122-0.101,0.296-0.15,0.523-0.15c0.177,0,0.316,0.033,0.416,0.099c0.102,0.066,0.165,0.15,0.19,0.248
	c0.027,0.098,0.041,0.242,0.041,0.429v0.465c0,0.325,0.005,0.528,0.019,0.613c0.012,0.085,0.037,0.167,0.073,0.248h-0.298
	C10.258,17.438,10.239,17.353,10.23,17.255"/>
<path fill="#FFFFFF" d="M10.94,17.509v-2.056h0.257v0.29c0.062-0.111,0.137-0.196,0.227-0.251c0.089-0.058,0.191-0.085,0.309-0.085
	c0.09,0,0.174,0.018,0.249,0.054c0.077,0.035,0.139,0.081,0.186,0.14c0.048,0.057,0.084,0.131,0.105,0.225
	c0.022,0.09,0.034,0.229,0.034,0.42v1.264h-0.284v-1.252c0-0.15-0.013-0.261-0.038-0.331c-0.026-0.069-0.064-0.123-0.121-0.161
	c-0.055-0.039-0.117-0.058-0.19-0.058c-0.136,0-0.245,0.052-0.327,0.152c-0.081,0.104-0.121,0.278-0.121,0.524v1.125H10.94z"/>
<path fill="#FFFFFF" d="M13.85,16.755l0.279,0.046c-0.032,0.244-0.111,0.433-0.241,0.56c-0.131,0.13-0.286,0.194-0.468,0.194
	c-0.221,0-0.402-0.092-0.544-0.271c-0.143-0.183-0.215-0.449-0.215-0.804c0-0.356,0.073-0.626,0.217-0.806
	c0.144-0.176,0.328-0.267,0.553-0.267c0.174,0,0.321,0.056,0.441,0.162c0.118,0.107,0.194,0.271,0.229,0.488l-0.276,0.05
	c-0.027-0.138-0.074-0.243-0.142-0.312c-0.066-0.067-0.146-0.103-0.242-0.103c-0.14,0-0.255,0.062-0.35,0.187
	c-0.092,0.124-0.137,0.321-0.137,0.594c0,0.279,0.044,0.483,0.132,0.606c0.088,0.125,0.201,0.188,0.341,0.188
	c0.108,0,0.199-0.043,0.277-0.124C13.779,17.061,13.829,16.932,13.85,16.755"/>
<path fill="#FFFFFF" d="M14.585,16.284h0.94c-0.015-0.178-0.052-0.311-0.115-0.399c-0.091-0.127-0.209-0.191-0.351-0.191
	c-0.127,0-0.235,0.054-0.327,0.16C14.644,15.96,14.593,16.104,14.585,16.284 M15.523,16.847l0.293,0.045
	c-0.048,0.219-0.137,0.384-0.268,0.496c-0.127,0.111-0.285,0.167-0.476,0.167c-0.238,0-0.432-0.09-0.579-0.271
	c-0.146-0.182-0.221-0.444-0.221-0.785c0-0.354,0.074-0.625,0.223-0.812c0.148-0.186,0.339-0.279,0.565-0.279
	c0.218,0,0.4,0.093,0.546,0.274c0.146,0.183,0.218,0.448,0.218,0.796l-0.002,0.092h-1.257c0.012,0.231,0.065,0.405,0.16,0.524
	c0.097,0.116,0.212,0.176,0.349,0.176C15.289,17.27,15.438,17.128,15.523,16.847"/>
<path fill="#FFFFFF" d="M16.365,16.482c0,0.267,0.047,0.463,0.14,0.592c0.091,0.129,0.199,0.194,0.322,0.194
	c0.121,0,0.226-0.062,0.315-0.187c0.088-0.123,0.134-0.311,0.134-0.561c0-0.288-0.046-0.499-0.134-0.63
	c-0.09-0.132-0.202-0.199-0.337-0.199c-0.121,0-0.224,0.064-0.31,0.191C16.409,16.011,16.365,16.211,16.365,16.482 M17.27,17.509
	V17.25c-0.052,0.099-0.117,0.175-0.199,0.226c-0.081,0.053-0.17,0.079-0.263,0.079c-0.199,0-0.372-0.095-0.517-0.281
	c-0.145-0.188-0.218-0.452-0.218-0.792c0-0.234,0.032-0.432,0.097-0.595c0.064-0.161,0.15-0.282,0.259-0.361
	c0.106-0.078,0.227-0.118,0.357-0.118c0.094,0,0.181,0.025,0.262,0.076c0.081,0.048,0.147,0.117,0.2,0.207v-1.019h0.288v2.837H17.27
	z"/>
</svg>
