<?xml version="1.0" encoding="utf-8"?>
<!-- Generator: Adobe Illustrator 16.0.0, SVG Export Plug-In . SVG Version: 6.00 Build 0)  -->
<!DOCTYPE svg PUBLIC "-//W3C//DTD SVG 1.1//EN" "http://www.w3.org/Graphics/SVG/1.1/DTD/svg11.dtd">
<svg version="1.1" id="Layer_1" xmlns="http://www.w3.org/2000/svg" xmlns:xlink="http://www.w3.org/1999/xlink" x="0px" y="0px"
	 width="20px" height="20px" viewBox="0 0 20 20" enable-background="new 0 0 20 20" xml:space="preserve">
<path display="none" fill="#80AF45" d="M22.932,10.146c0-6.973-5.652-12.626-12.626-12.626c-6.972,0-12.624,5.653-12.624,12.626
	c0,6.974,5.652,12.626,12.624,12.626C17.279,22.772,22.932,17.12,22.932,10.146"/>
<path fill="none" stroke="#FFFFFF" stroke-width="0.571" d="M9.786,0.023c-0.313,0.044-1.39,1.39-1.614,1.569
	C7.947,1.771,6.828,1.369,6.647,1.503C6.467,1.637,6.243,2.534,6.11,2.668C5.975,2.803,5.839,2.712,5.706,2.892
	c-0.134,0.18-0.18,1.391-0.314,1.526c-0.134,0.134-0.312,0-0.492,0c-0.181,0-0.403,0.134-0.583,0.492
	c-0.18,0.358-0.762,1.435-0.762,1.749c0,0.314,0.448,0.314,0.537,0.538c0.09,0.225,0.943,1.615,0.943,2.018
	c0,0.404-0.808,1.39-0.763,1.659c0.045,0.269,0.941,0.539,1.03,0.762c0.09,0.225,1.212,1.928,1.301,2.197
	c0.09,0.269,0.135,0.628,0.135,0.761c0,0.135,0.357,0.674,0.492,0.764c0.136,0.089,0.405,0.313,0.494,0.403
	c0.09,0.089,0.09,0.448,0.134,0.584c0.045,0.133,0.539,0.313,0.628,0.492c0.09,0.18,0.225,0.404,0.36,0.582
	c0.133,0.18,0.358,0,0.448,0.091c0.089,0.089,0.941,0.806,1.031,0.941c0.09,0.135,0,0.313,0.045,0.402
	c0.044,0.091,0.714,0.18,0.94,0.226c0.225,0.043,0.808,0.673,1.256,0.763c0.448,0.088,1.301-0.809,1.614-0.853
	c0.313-0.045,1.212,0.09,1.48-0.358c0.267-0.45,0.089-0.854,0-1.121c-0.09-0.269-0.18-0.18-0.405-0.269
	c-0.225-0.092,0-0.225-0.044-0.494s-0.226-0.226-0.358-0.314c-0.135-0.088-0.225-0.627-0.181-0.807
	c0.046-0.18,0.226-0.583,0.27-0.807c0.044-0.226-0.133-0.226-0.178-0.358c-0.046-0.136,0-0.225-0.092-0.404
	c-0.09-0.18-0.179,0.09-0.223-0.091c-0.046-0.177,0.269-0.985,0.269-1.21c0-0.224-0.136-0.09-0.18-0.224
	c-0.045-0.135,0.226-0.448,0.226-0.628c0-0.179-0.092-0.403-0.092-0.626c0-0.227,0.313-0.405,0.358-0.585
	c0.047-0.179-0.045-1.614-0.089-1.748s-0.044-0.628-0.044-0.762c0-0.134,0.313-0.224,0.313-0.403s-0.226-0.717-0.181-0.897
	c0.047-0.179,0.54-0.942,0.496-1.165c-0.046-0.225-0.218-1.043-0.154-1.285c0.064-0.241,0.108-0.599,0.108-0.599l-0.898-0.853
	L14.045,1.95l-0.808-0.627l-0.761-0.089c0,0-0.403-0.854-0.717-1.031c-0.315-0.18-0.853,0.403-1.122,0.358
	C10.37,0.516,10.1-0.022,9.786,0.023z"/>
<path fill="none" stroke="#FFFFFF" stroke-width="0.381" d="M12.827,8.974c0,0-0.87-0.623-1.244-0.685
	c-0.373-0.062-0.559,0.125-0.682,0.373c-0.126,0.249-0.437,0.623-0.748,0.623c-0.31,0-0.31-0.499-0.56-0.56
	C9.345,8.662,9.22,8.974,9.22,9.285s0.186,0.623,0.125,0.809c-0.061,0.185-0.498,0.062-0.746,0.062c-0.25,0-0.374,0.622-0.436,0.932
	c-0.062,0.312-0.063,0.808,0.062,0.997c0.124,0.186,0.374,0.311,0.436,0.62c0.061,0.311-0.062,0.126-0.187,0.375
	c-0.125,0.247-0.062,0.436-0.062,0.62c0,0.188,0.062,0.499,0.187,0.811c0.123,0.311,0.497,0.372,0.685,0.558
	c0.186,0.187,0.061,0.435,0.061,0.435 M12.516,10.155c0,0-0.87-0.248-1.432-0.248c-0.558,0-0.371,0.061-0.495,0.433
	c-0.125,0.374-0.685,0.624-0.996,0.686c-0.31,0.061-0.747,0-0.871,0.248c-0.123,0.249-0.061,0.746,0.062,1.057
	c0.124,0.312,0.436,0.188,0.499,0.56c0.061,0.374-0.623,0.872-0.499,1.244c0.124,0.375,0.938,0.686,1.126,0.933
	c0.186,0.249-0.068,0.685-0.068,0.685 M9.831,7.465C9.606,7.42,8.843,7.645,8.665,7.87C8.485,8.093,8.63,8.253,8.54,8.613
	C8.45,8.972,7.857,9.214,7.679,9.619c-0.179,0.402,0.179,1.658,0.134,2.062c-0.045,0.404,0.089,1.524,0.179,1.973
	c0.091,0.448,0.673,1.614,0.941,1.927c0.27,0.313,0.853,1.032,1.256,1.122c0.404,0.09,2.421,0,2.421,0s1.12-1.479,1.077-1.883
	c-0.046-0.403-0.629-1.408-0.585-1.903c0.044-0.491,0.226-2.132,0.226-2.132s0.737-1.372,0.334-1.955
	c-0.405-0.583-1.008-1.049-1.41-1.184c-0.404-0.135-1.031-0.135-1.345-0.091C10.594,7.599,10.054,7.51,9.831,7.465z M9.706,2.071
	C9.375,2.153,9.539,2.4,9.293,2.73C9.045,3.059,8.551,2.976,8.22,2.976c-0.328,0-0.659,0.083-0.741,0.331
	C7.397,3.555,7.726,3.636,7.562,3.965C7.397,4.295,7.15,4.378,6.819,4.543C6.49,4.708,6.492,5.037,6.325,5.286
	C6.16,5.532,5.749,5.78,5.585,6.027C5.418,6.276,5.83,6.44,5.912,6.604c0.083,0.165,0.743,0.66,0.661,0.989
	c-0.083,0.33-0.248,0.33-0.248,0.66c0,0.329,0.329,1.154,0.413,1.402c0.082,0.247,0.494,0.823,0.494,1.154
	c0,0.328,0.082,1.154,0.082,1.483s-0.164,0.741,0,1.07c0.165,0.33,0.33,0.907,0.495,1.155c0.164,0.245,1.071,1.236,1.236,1.484
	c0.166,0.246,0.495,1.07,1.402,1.235c0.906,0.166,1.811-0.33,1.811-0.33l1.239-0.577c0,0,0.321-0.328,0.328-0.988
	c0.007-0.661-0.248-1.403-0.414-1.979c-0.164-0.577,0.414-0.248,0.331-0.494c-0.081-0.247-0.412-0.411-0.331-0.823
	c0.086-0.413,0.745-1.732,0.745-2.062c0-0.329-0.331-1.484-0.331-1.814c0-0.33,0.411-0.165,0.411-0.659
	c0-0.496-0.244-0.825-0.411-1.153c-0.164-0.33,0.167-0.907,0.083-1.32c-0.083-0.412-0.331-1.154-0.742-1.318
	c-0.412-0.164,0.05-0.709-0.28-0.545c-0.329,0.165-0.792,0.296-0.873,0.051C11.932,2.976,11.93,1.822,11.6,1.905
	c-0.327,0.083-0.412,0.083-0.741,0.166C10.529,2.153,10.036,1.988,9.706,2.071z M11.534,18.137c-0.313,0.09-0.538,0.134-0.986-0.09
	c-0.449-0.224-2.288-2.196-2.691-2.555c-0.402-0.358-1.075-2.046-1.21-2.314c-0.134-0.271,0.179-0.422,0.09-0.825
	C6.647,11.949,5.93,11.5,5.75,11.052c-0.179-0.448,0-1.479-0.09-1.927C5.571,8.676,5.212,7.87,5.034,7.51
	C4.854,7.151,4.406,7.286,4.361,7.018C4.316,6.749,4.12,6.264,4.253,6.04c0.135-0.226,0.682-0.77,0.906-0.815
	c0.225-0.045,0.53-0.028,0.574-0.252C5.777,4.749,5.582,4.517,5.76,4.337C5.94,4.158,6.199,3.43,6.467,3.071
	c0.271-0.359,0.531-0.438,0.71-0.527c0.18-0.089,0.161-0.287,0.34-0.467c0.18-0.181,0.296,0,0.61,0S8.35,1.413,8.71,1.457
	c0.358,0.044,0.268-0.293,0.583-0.382c0.313-0.091-0.045-0.559,0.448-0.604c0.494-0.045,0.494,0.493,0.718,0.628
	c0.223,0.135,0.806-0.045,0.806-0.045s0.136,0.045,0.225,0.18c0.09,0.135,0.448,0.134,0.584,0.179
	c0.134,0.044,0.313,0.402,0.491,0.493c0.181,0.09,0.539,0,0.719,0.09c0.179,0.089,0.314,0.538,0.447,0.716
	c0.136,0.18,0.449,0.359,0.494,0.583c0.046,0.225,0.09,0.673,0.09,0.987c0,0.313,0.357,0.269,0.449,0.671
	c0.089,0.404-0.314,0.987-0.314,1.301c0,0.314,0.359,0.942,0.314,1.48c-0.046,0.537-0.36,0.269-0.405,0.674
	c-0.044,0.402,0.27,1.478,0.224,1.792c-0.044,0.312-0.806,1.837-0.806,2.107c0,0.269,0.313,0.359,0.27,0.762
	c-0.045,0.404-0.539,0.719-0.315,1.166c0.225,0.449,0.54,0.584,0.584,0.942c0.044,0.359,0.268,1.167,0.179,1.524
	c-0.09,0.359-0.313,0.94-0.717,1.165C13.372,18.092,11.848,18.047,11.534,18.137z"/>
</svg>
