<?xml version="1.0" encoding="utf-8"?>
<!-- Generator: Adobe Illustrator 16.0.0, SVG Export Plug-In . SVG Version: 6.00 Build 0)  -->
<!DOCTYPE svg PUBLIC "-//W3C//DTD SVG 1.1//EN" "http://www.w3.org/Graphics/SVG/1.1/DTD/svg11.dtd">
<svg version="1.1" id="Layer_1" xmlns="http://www.w3.org/2000/svg" xmlns:xlink="http://www.w3.org/1999/xlink" x="0px" y="0px"
	 width="20px" height="20px" viewBox="0 0 20 20" enable-background="new 0 0 20 20" xml:space="preserve">
<path display="none" fill="#2CA9E1" d="M22.959,9.498c0-6.973-5.652-12.625-12.626-12.625c-6.972,0-12.624,5.652-12.624,12.625
	s5.652,12.625,12.624,12.625C17.307,22.123,22.959,16.471,22.959,9.498"/>
<polygon fill="#FFFFFF" points="11.238,12.555 9.416,13.275 8.736,12.562 8.894,12.008 8.894,11.908 10.467,11.245 11.006,11.411 
	"/>
<polygon fill="#FFFFFF" points="5.712,10.599 4.328,11.021 3.931,11.146 2.124,11.692 0.128,10.79 0.02,8.354 0.973,7.542 
	4.453,6.556 4.453,6.034 4.651,6.018 4.858,6.108 4.884,6.978 5.629,8.139 "/>
<polygon fill="#FFFFFF" points="12.042,8.901 9.722,9.613 9.242,9.763 8.454,10.002 6.458,9.099 6.35,6.655 7.303,5.852 
	10.783,4.866 10.783,4.344 10.973,4.319 11.188,4.419 11.205,5.289 11.959,6.44 "/>
<polygon fill="#FFFFFF" points="18.313,7.393 16.251,8.022 15.803,8.155 14.727,8.487 12.721,7.584 12.621,5.147 13.575,4.335 
	17.055,3.358 17.055,2.836 17.244,2.811 17.461,2.902 17.478,3.772 18.231,4.932 "/>
<path fill="#FFFFFF" d="M17.644,8.909c0,0.058-0.042,0.124-0.101,0.149l-5.949,2.494l1.699,0.638v0.341l-2.097-0.796
	c-0.024-0.009-0.033,0-0.033,0l-0.024,0.008c0.009,0.018,0.017,0.034,0.024,0.059c0.033,0.082,0.051,0.174,0.051,0.257
	c0,0.065-0.009,0.132-0.034,0.19v0.008c-0.041,0.116-0.116,0.207-0.223,0.282h-0.008c-0.009,0.008-0.009,0.008-0.017,0.008
	L9.63,13.118c-0.107,0.05-0.223,0.058-0.338,0.024c-0.042-0.008-0.084-0.024-0.126-0.051c-0.09-0.058-0.173-0.148-0.231-0.247
	c-0.025-0.041-0.05-0.082-0.066-0.134L7.377,13.3c-0.025,0.009-0.042,0.018-0.058,0.018c-0.033,0-0.059-0.009-0.083-0.025
	l-3.306-2.146l0.397-0.125l3,1.955l1.451-0.571l0.082-0.033c-0.009-0.017-0.017-0.04-0.017-0.067v-0.007L8.819,12.28l-1.185-0.563
	c-0.059-0.033-0.092-0.09-0.092-0.148c0.008-0.066,0.05-0.124,0.108-0.141l2.767-1.003L9.241,9.763l0.48-0.15l1.235,0.646
	c0.065,0.017,0.106,0.083,0.106,0.149c0.01,0.066-0.032,0.124-0.099,0.149l-2.858,1.036l0.787,0.381l0.107,0.049
	c0.033-0.032,0.075-0.057,0.124-0.082l1.334-0.555h0.017c0.008-0.008,0.008-0.008,0.016-0.008c0.158-0.025,0.315,0.016,0.439,0.106
	l0.083-0.032l0.025-0.009l6.015-2.528l-1.252-0.762l0.448-0.132l1.283,0.737C17.602,8.785,17.644,8.842,17.644,8.909"/>
<path fill="#FFFFFF" d="M19.979,12.579v3.107l-0.018,0.05c-0.124,0.307-1.399,0.63-3.239,0.63c-1.79,0-3.106-0.323-3.207-0.622
	l-0.024-0.024v-3.116l0.034,0.018c0.124,0.082,0.298,0.157,0.505,0.215c0.066,0.024,0.142,0.042,0.216,0.058
	c0.008,0,0.025,0.01,0.032,0.01c0.059,0.017,0.117,0.032,0.174,0.04c0.108,0.025,0.225,0.05,0.349,0.066
	c0.142,0.025,0.298,0.05,0.455,0.066c0.158,0.016,0.324,0.033,0.489,0.041c0.324,0.033,0.654,0.042,0.978,0.042
	c0.506,0,1.011-0.024,1.483-0.083c0.157-0.017,0.314-0.041,0.456-0.066c0.124-0.024,0.24-0.041,0.356-0.066
	c0.083-0.016,0.174-0.034,0.256-0.065c0.059-0.018,0.116-0.033,0.175-0.051c0.058-0.008,0.107-0.033,0.158-0.058
	c0.099-0.032,0.189-0.074,0.264-0.123C19.913,12.628,19.945,12.612,19.979,12.579"/>
<path fill="#FFFFFF" d="M16.665,12.123l-0.771-0.463c0.257-0.018,0.538-0.025,0.827-0.025c1.782,0,2.951,0.291,3.208,0.547h-2.975
	C16.88,12.123,16.747,12.115,16.665,12.123"/>
<path fill="#FFFFFF" d="M16.45,12.231c-0.009,0.008-0.009,0.024-0.009,0.033v0.016v0.034l-0.1,0.049l-1.002,0.523
	c-0.83-0.093-1.417-0.259-1.683-0.424c-0.024-0.018-0.05-0.033-0.074-0.048c-0.025-0.01-0.042-0.026-0.05-0.052
	c-0.025-0.023-0.042-0.058-0.042-0.083v-0.016c0.009-0.033,0.034-0.066,0.076-0.101c0.024-0.024,0.057-0.049,0.09-0.064
	c0.041-0.026,0.1-0.059,0.175-0.084c0.065-0.024,0.14-0.059,0.224-0.083c0.298-0.091,0.704-0.165,1.201-0.223
	c0.05-0.009,0.099-0.018,0.149-0.018c0.05-0.007,0.099-0.007,0.148-0.007l0.787,0.479L16.45,12.231z"/>
<path fill="#FFFFFF" d="M19.93,12.381c-0.248,0.266-1.442,0.58-3.208,0.58c-0.363,0-0.711-0.018-1.025-0.041l0.943-0.481h0.082
	c0.076,0,0.175-0.009,0.233-0.058H19.93z"/>
</svg>
