<?xml version="1.0" encoding="utf-8"?>
<!-- Generator: Adobe Illustrator 16.0.0, SVG Export Plug-In . SVG Version: 6.00 Build 0)  -->
<!DOCTYPE svg PUBLIC "-//W3C//DTD SVG 1.1//EN" "http://www.w3.org/Graphics/SVG/1.1/DTD/svg11.dtd">
<svg version="1.1" id="Layer_1" xmlns="http://www.w3.org/2000/svg" xmlns:xlink="http://www.w3.org/1999/xlink" x="0px" y="0px"
	 width="40px" height="40px" viewBox="0 0 40 40" enable-background="new 0 0 40 40" xml:space="preserve">
<path display="none" fill="#2CA9E1" d="M32.959,20.498c0-6.973-5.652-12.625-12.626-12.625c-6.972,0-12.624,5.652-12.624,12.625
	s5.652,12.625,12.624,12.625C27.307,33.123,32.959,27.471,32.959,20.498"/>
<polygon fill="#FFFFFF" points="21.1,23.074 19.073,23.875 18.318,23.083 18.493,22.466 18.493,22.355 20.242,21.619 20.841,21.803 
	"/>
<polygon fill="#FFFFFF" points="14.956,20.9 13.418,21.37 12.976,21.508 10.968,22.116 8.749,21.112 8.629,18.404 9.688,17.502 
	13.556,16.406 13.556,15.825 13.777,15.808 14.007,15.908 14.035,16.875 14.864,18.166 "/>
<polygon fill="#FFFFFF" points="21.992,19.012 19.413,19.804 18.879,19.97 18.004,20.237 15.785,19.233 15.665,16.517 
	16.724,15.624 20.592,14.527 20.592,13.947 20.804,13.919 21.043,14.03 21.062,14.998 21.9,16.277 "/>
<polygon fill="#FFFFFF" points="28.964,17.336 26.671,18.036 26.173,18.183 24.977,18.552 22.747,17.548 22.637,14.84 
	23.696,13.938 27.564,12.851 27.564,12.271 27.775,12.243 28.016,12.344 28.034,13.311 28.872,14.601 "/>
<path fill="#FFFFFF" d="M28.219,19.021c0,0.065-0.047,0.138-0.111,0.166l-6.612,2.771l1.888,0.709v0.379l-2.33-0.885
	c-0.027-0.01-0.037,0-0.037,0l-0.027,0.01c0.01,0.018,0.019,0.037,0.027,0.063c0.037,0.093,0.056,0.194,0.056,0.286
	c0,0.073-0.009,0.146-0.037,0.212v0.009c-0.046,0.129-0.129,0.23-0.248,0.313h-0.009c-0.01,0.009-0.01,0.009-0.019,0.009
	l-1.446,0.637c-0.12,0.055-0.248,0.063-0.377,0.026c-0.046-0.009-0.093-0.026-0.139-0.056c-0.101-0.064-0.193-0.166-0.257-0.275
	c-0.028-0.046-0.056-0.092-0.074-0.148l-1.658,0.654c-0.028,0.01-0.046,0.02-0.064,0.02c-0.037,0-0.065-0.01-0.092-0.028
	l-3.675-2.385l0.442-0.138l3.334,2.172l1.612-0.635l0.092-0.037c-0.01-0.019-0.019-0.045-0.019-0.074v-0.008l-0.027-0.02
	l-1.317-0.626c-0.065-0.037-0.102-0.101-0.102-0.166c0.009-0.073,0.056-0.138,0.12-0.156l3.076-1.115l-1.308-0.736l0.534-0.166
	l1.373,0.718c0.073,0.019,0.119,0.092,0.119,0.166c0.01,0.074-0.036,0.138-0.11,0.166l-3.177,1.151l0.875,0.424l0.119,0.055
	c0.037-0.037,0.083-0.064,0.138-0.092l1.483-0.617h0.019c0.009-0.009,0.009-0.009,0.018-0.009c0.175-0.028,0.35,0.019,0.488,0.119
	l0.092-0.037l0.028-0.009l6.687-2.81l-1.392-0.847l0.498-0.147l1.427,0.819C28.172,18.884,28.219,18.947,28.219,19.021"/>
<path fill="#FFFFFF" d="M30.815,23.102v3.454l-0.019,0.055c-0.139,0.341-1.557,0.7-3.601,0.7c-1.99,0-3.454-0.359-3.565-0.691
	l-0.027-0.027v-3.463l0.037,0.019c0.139,0.092,0.332,0.175,0.562,0.239c0.074,0.027,0.157,0.047,0.24,0.064
	c0.009,0,0.028,0.01,0.036,0.01c0.064,0.019,0.13,0.037,0.193,0.045c0.12,0.028,0.25,0.056,0.387,0.074
	c0.158,0.028,0.332,0.055,0.507,0.074c0.175,0.018,0.36,0.036,0.544,0.046c0.359,0.036,0.727,0.046,1.087,0.046
	c0.562,0,1.123-0.027,1.647-0.092c0.176-0.02,0.351-0.046,0.508-0.074c0.138-0.027,0.267-0.046,0.396-0.074
	c0.093-0.018,0.193-0.037,0.285-0.072c0.065-0.02,0.129-0.037,0.194-0.057c0.063-0.009,0.119-0.037,0.175-0.063
	c0.11-0.037,0.211-0.083,0.294-0.138C30.741,23.156,30.778,23.139,30.815,23.102"/>
<path fill="#FFFFFF" d="M27.131,22.595l-0.856-0.516c0.286-0.019,0.599-0.027,0.921-0.027c1.98,0,3.279,0.322,3.564,0.607h-3.307
	C27.37,22.595,27.223,22.586,27.131,22.595"/>
<path fill="#FFFFFF" d="M26.893,22.715c-0.01,0.009-0.01,0.027-0.01,0.037v0.018v0.037l-0.111,0.055l-1.113,0.582
	c-0.922-0.103-1.575-0.287-1.87-0.471c-0.027-0.02-0.056-0.037-0.083-0.055c-0.027-0.01-0.047-0.028-0.055-0.057
	c-0.028-0.026-0.047-0.063-0.047-0.092v-0.018c0.01-0.037,0.037-0.074,0.084-0.111c0.027-0.027,0.063-0.055,0.101-0.072
	c0.046-0.029,0.11-0.065,0.194-0.094c0.072-0.027,0.155-0.064,0.248-0.092c0.332-0.102,0.782-0.184,1.336-0.248
	c0.055-0.009,0.109-0.02,0.166-0.02c0.055-0.008,0.109-0.008,0.164-0.008l0.875,0.533L26.893,22.715z"/>
<path fill="#FFFFFF" d="M30.76,22.881c-0.275,0.295-1.604,0.645-3.564,0.645c-0.404,0-0.791-0.02-1.142-0.046l1.05-0.535h0.092
	c0.084,0,0.193-0.009,0.259-0.063H30.76z"/>
</svg>
