<?xml version="1.0" encoding="utf-8"?>
<!-- Generator: Adobe Illustrator 16.0.0, SVG Export Plug-In . SVG Version: 6.00 Build 0)  -->
<!DOCTYPE svg PUBLIC "-//W3C//DTD SVG 1.1//EN" "http://www.w3.org/Graphics/SVG/1.1/DTD/svg11.dtd">
<svg version="1.1" id="Layer_1" xmlns="http://www.w3.org/2000/svg" xmlns:xlink="http://www.w3.org/1999/xlink" x="0px" y="0px"
	 width="22.187px" height="15.067px" viewBox="0 0 22.187 15.067" enable-background="new 0 0 22.187 15.067" xml:space="preserve">
<path display="none" fill="#2CA9E1" d="M24.33,8.254c0-6.973-5.652-12.625-12.626-12.625C4.732-4.371-0.92,1.281-0.92,8.254
	S4.732,20.88,11.704,20.88C18.678,20.88,24.33,15.228,24.33,8.254"/>
<polygon fill="#FFFFFF" points="12.471,10.831 10.444,11.632 9.689,10.84 9.864,10.223 9.864,10.112 11.613,9.376 12.212,9.56 "/>
<polygon fill="#FFFFFF" points="6.327,8.657 4.789,9.127 4.347,9.265 2.339,9.873 0.12,8.869 0,6.161 1.059,5.259 4.927,4.163 
	4.927,3.582 5.148,3.564 5.378,3.665 5.406,4.632 6.235,5.922 "/>
<polygon fill="#FFFFFF" points="13.363,6.769 10.784,7.561 10.25,7.727 9.375,7.994 7.156,6.99 7.036,4.273 8.095,3.38 
	11.963,2.284 11.963,1.704 12.175,1.676 12.414,1.787 12.434,2.754 13.271,4.034 "/>
<polygon fill="#FFFFFF" points="20.335,5.093 18.042,5.793 17.544,5.94 16.348,6.309 14.118,5.305 14.008,2.597 15.067,1.695 
	18.936,0.608 18.936,0.028 19.146,0 19.387,0.101 19.405,1.068 20.243,2.358 "/>
<path fill="#FFFFFF" d="M19.59,6.778c0,0.065-0.047,0.138-0.111,0.166l-6.612,2.771l1.888,0.709v0.379l-2.33-0.885
	c-0.027-0.01-0.037,0-0.037,0l-0.027,0.01c0.01,0.018,0.019,0.037,0.027,0.063c0.037,0.093,0.056,0.194,0.056,0.286
	c0,0.073-0.009,0.146-0.037,0.212v0.009c-0.046,0.129-0.129,0.23-0.248,0.313h-0.009c-0.01,0.009-0.01,0.009-0.019,0.009
	l-1.446,0.637c-0.12,0.055-0.248,0.063-0.377,0.026c-0.046-0.009-0.093-0.026-0.139-0.056c-0.101-0.064-0.193-0.166-0.257-0.275
	c-0.028-0.046-0.056-0.092-0.074-0.148l-1.658,0.654c-0.028,0.01-0.046,0.02-0.064,0.02c-0.037,0-0.065-0.01-0.092-0.028
	L4.347,9.266l0.442-0.138L8.123,11.3l1.612-0.635l0.092-0.037c-0.01-0.019-0.019-0.045-0.019-0.074v-0.008l-0.027-0.02L8.464,9.9
	C8.399,9.863,8.362,9.8,8.362,9.734c0.009-0.073,0.056-0.138,0.12-0.156l3.076-1.115L10.25,7.728l0.534-0.166l1.373,0.718
	c0.073,0.019,0.119,0.092,0.119,0.166c0.01,0.074-0.036,0.138-0.11,0.166L8.989,9.763l0.875,0.424l0.119,0.055
	c0.037-0.037,0.083-0.064,0.138-0.092l1.483-0.617h0.019c0.009-0.009,0.009-0.009,0.018-0.009c0.175-0.028,0.35,0.019,0.488,0.119
	l0.092-0.037l0.028-0.009l6.687-2.81L17.544,5.94l0.498-0.147l1.427,0.819C19.543,6.641,19.59,6.704,19.59,6.778"/>
<path fill="#FFFFFF" d="M22.187,10.858v3.454l-0.019,0.055c-0.139,0.341-1.557,0.7-3.601,0.7c-1.99,0-3.454-0.359-3.565-0.691
	l-0.027-0.027v-3.463l0.037,0.019c0.139,0.092,0.332,0.175,0.562,0.239c0.074,0.027,0.157,0.047,0.24,0.064
	c0.009,0,0.028,0.01,0.036,0.01c0.064,0.019,0.13,0.037,0.193,0.045c0.12,0.028,0.25,0.056,0.387,0.074
	c0.158,0.028,0.332,0.055,0.507,0.074c0.175,0.018,0.36,0.036,0.544,0.046c0.359,0.036,0.727,0.046,1.087,0.046
	c0.562,0,1.123-0.027,1.647-0.092c0.176-0.02,0.351-0.046,0.508-0.074c0.138-0.027,0.267-0.046,0.396-0.074
	c0.093-0.018,0.193-0.037,0.285-0.072c0.065-0.02,0.129-0.037,0.194-0.057c0.063-0.009,0.119-0.037,0.175-0.063
	c0.11-0.037,0.211-0.083,0.294-0.138C22.112,10.913,22.149,10.896,22.187,10.858"/>
<path fill="#FFFFFF" d="M18.502,10.352l-0.856-0.516c0.286-0.019,0.599-0.027,0.921-0.027c1.98,0,3.279,0.322,3.564,0.607h-3.307
	C18.741,10.352,18.594,10.343,18.502,10.352"/>
<path fill="#FFFFFF" d="M18.264,10.472c-0.01,0.009-0.01,0.027-0.01,0.037v0.018v0.037l-0.111,0.055L17.029,11.2
	c-0.922-0.103-1.575-0.287-1.87-0.471c-0.027-0.02-0.056-0.037-0.083-0.055c-0.027-0.01-0.047-0.028-0.055-0.057
	c-0.028-0.026-0.047-0.063-0.047-0.092v-0.018c0.01-0.037,0.037-0.074,0.084-0.111c0.027-0.027,0.063-0.055,0.101-0.072
	c0.046-0.029,0.11-0.065,0.194-0.094c0.072-0.027,0.155-0.064,0.248-0.092c0.332-0.102,0.782-0.184,1.336-0.248
	c0.055-0.009,0.109-0.02,0.166-0.02c0.055-0.008,0.109-0.008,0.164-0.008l0.875,0.533L18.264,10.472z"/>
<path fill="#FFFFFF" d="M22.131,10.638c-0.275,0.295-1.604,0.645-3.564,0.645c-0.404,0-0.791-0.02-1.142-0.046l1.05-0.535h0.092
	c0.084,0,0.193-0.009,0.259-0.063H22.131z"/>
</svg>
