<?xml version="1.0" encoding="utf-8"?>
<!-- Generator: Adobe Illustrator 16.0.0, SVG Export Plug-In . SVG Version: 6.00 Build 0)  -->
<!DOCTYPE svg PUBLIC "-//W3C//DTD SVG 1.1//EN" "http://www.w3.org/Graphics/SVG/1.1/DTD/svg11.dtd">
<svg version="1.1" id="Layer_1" xmlns="http://www.w3.org/2000/svg" xmlns:xlink="http://www.w3.org/1999/xlink" x="0px" y="0px"
	 width="20px" height="20px" viewBox="0 0 20 20" enable-background="new 0 0 20 20" xml:space="preserve">
<path display="none" fill="#80AF45" d="M22.932,9.477c0-6.974-5.653-12.625-12.625-12.625S-2.319,2.503-2.319,9.477
	s5.653,12.626,12.625,12.626S22.932,16.45,22.932,9.477"/>
<path fill="#FFFFFF" d="M19.892,18.072c0.123-5.081-1.91-6.182-1.91-6.182c0.976,1.216,1.233,3.286,1.279,4.798
	c-0.351-5.113-4.156-6.77-4.156-6.77c2.151,1.469,2.704,4.211,2.798,6.215c-0.562-4.681-4.001-6.217-4.001-6.217
	c1.293,0.905,1.992,2.296,2.36,3.698c-0.562-1.65-1.326-2.265-1.326-2.265c0.722,0.899,1.052,2.368,1.192,3.747
	c-0.998-4.377-4.699-5.844-4.699-5.844c2.33,1.45,3.073,4.051,3.265,6.135c-1.197-4.603-6.353-6.135-6.353-6.135
	c3.336,1.556,4.236,4.432,4.406,6.577c-0.993-4.838-6.446-6.433-6.446-6.433c4.391,2.015,4.566,6.281,4.403,8.195
	c0.153-6.331-6.127-8.34-6.127-8.34c3.314,1.664,4.042,4.838,4.117,7.014C7.87,11.479,2.189,9.915,2.189,9.915
	c3.3,1.429,4.218,4.058,4.401,6.044c-1.01-4.543-6.44-6.04-6.44-6.04c4.213,1.823,4.544,5.604,4.42,7.503
	c-0.134-4.599-4.54-6.071-4.54-6.071c2.288,1.2,2.912,3.418,3.031,5.078c-0.834-1.932-2.744-3.137-2.744-3.137
	c1.313,0.932,2.081,3.659,2.348,4.78H2.305c2.174,2.465,5.413,4.03,9.033,4.03s6.858-1.565,9.032-4.03H19.892z"/>
<path fill="#FFFFFF" d="M18.023,10.954c-0.266-0.425-0.723-0.764-0.793-1.292c-0.072,0.07-0.11,0.157-0.114,0.258
	c-0.268-0.508-0.729-0.968-0.708-1.586c-0.218-0.016-0.031,0.354-0.031,0.538c-0.462,0.039-0.158-1.34-0.484-1.444
	c-0.016,0.403,0.095,0.708-0.074,0.929c-0.104-0.198-0.108-1.537-0.211-1.546c-0.019,0.143-0.067,0.273-0.147,0.394
	c-0.073-0.201-0.098-0.409-0.072-0.622c-0.729,0.354,0.054-0.022-0.321-0.205c-0.064,0.137-0.169,0.181-0.311,0.132
	c0.057-0.017,0.083-0.051,0.083-0.104c-0.202,0.096-0.32,0.069-0.243-0.137c-0.06,0.022-0.118,0.034-0.182,0.04
	c-0.019-0.092,0.008-0.168,0.077-0.229c-0.14,0.102-0.269,0.094-0.387-0.021c0.066,0.011,0.111-0.014,0.132-0.072
	c-0.55,0.202-1.658-0.864-2.075-1.137c-0.978,0.074-1.896,1.216-2.627,1.87c0.121-0.193,0.218-0.399,0.291-0.615
	C9.609,6.201,9.41,6.323,9.224,6.467c0.736-1.148,2.489-2.186,0.866-3.226C9.844,2.728,9.327,2.456,9.201,2.29
	C9.195,2.172,9.312,2.075,9.164,2.021C9.147,2.145,7.938,2.267,7.788,2.238c0.474-0.24-0.46-0.237-0.593-0.263
	c-0.453-0.087-0.43-0.088-1.178-0.263c0-0.047,4.69-1.063,5.109-0.524c0.371,0.478,0.462,1.424,1.34,1.363
	c0.475-0.034,0.732-0.499,1.189-0.579c0.335-0.06,1.296-0.006,1.609,0.087c-0.794,0.205-1.546,0.522-1.872,1.33
	c0.688,0.845,1.979,0.889,2.576,1.718C16.401,5.707,18.451,10.858,18.023,10.954C17.768,10.543,18.056,10.947,18.023,10.954"/>
</svg>
