<?xml version="1.0" encoding="utf-8"?>
<!-- Generator: Adobe Illustrator 16.0.0, SVG Export Plug-In . SVG Version: 6.00 Build 0)  -->
<!DOCTYPE svg PUBLIC "-//W3C//DTD SVG 1.1//EN" "http://www.w3.org/Graphics/SVG/1.1/DTD/svg11.dtd">
<svg version="1.1" id="Layer_1" xmlns="http://www.w3.org/2000/svg" xmlns:xlink="http://www.w3.org/1999/xlink" x="0px" y="0px"
	 width="20px" height="20px" viewBox="0 0 20 20" enable-background="new 0 0 20 20" xml:space="preserve">
<path display="none" fill="#FF0000" d="M22.932,10.057c0-6.973-5.652-12.625-12.625-12.625c-6.972,0-12.625,5.652-12.625,12.625
	c0,6.974,5.653,12.625,12.625,12.625C17.279,22.682,22.932,17.03,22.932,10.057"/>
<path fill="#FFFFFF" d="M21.504,9.074c0,0.698-0.515,1.268-1.147,1.268S19.21,9.772,19.21,9.074c0-0.185-0.148-0.333-0.333-0.333
	s-0.333,0.147-0.333,0.333c0,0.646-0.441,1.176-1.009,1.252v0.663c0.552-0.046,1.038-0.344,1.342-0.8
	c0.329,0.494,0.869,0.818,1.479,0.818c0.696,0,1.295-0.426,1.6-1.041c0.017-0.262,0.039-0.524,0.039-0.79
	c0-0.137-0.017-0.27-0.02-0.405c-0.043-0.02-0.09-0.031-0.139-0.031C21.653,8.742,21.504,8.889,21.504,9.074"/>
<path fill="#FFFFFF" d="M-0.358,11.252c0.611,0,1.151-0.323,1.481-0.818c0.328,0.495,0.868,0.818,1.479,0.818
	c0.094,0,0.183-0.021,0.272-0.036v-0.671c-0.087,0.025-0.178,0.041-0.272,0.041c-0.632,0-1.146-0.567-1.146-1.267
	c0-0.184-0.148-0.332-0.333-0.332c-0.184,0-0.333,0.148-0.333,0.332c0,0.7-0.516,1.267-1.148,1.267
	c-0.632,0-1.146-0.567-1.146-1.267c0-0.184-0.148-0.332-0.333-0.332c-0.055,0-0.105,0.017-0.15,0.041
	c-0.001,0.05-0.008,0.098-0.008,0.149c0,0.357,0.022,0.71,0.053,1.06C-1.634,10.838-1.044,11.252-0.358,11.252"/>
<defs>
	<filter id="Adobe_OpacityMaskFilter" filterUnits="userSpaceOnUse" x="2.876" y="6.6" width="14.658" height="5.92">
		
			<feColorMatrix  type="matrix" values="-1 0 0 0 1  0 -1 0 0 1  0 0 -1 0 1  0 0 0 1 0" color-interpolation-filters="sRGB" result="source"/>
		<feFlood  style="flood-color:white;flood-opacity:1" result="back"/>
		<feBlend  in="source" in2="back" mode="normal"/>
	</filter>
</defs>
<mask maskUnits="userSpaceOnUse" x="2.876" y="6.6" width="14.658" height="5.92" id="SVGID_1_">
	<g filter="url(#Adobe_OpacityMaskFilter)">
		<path fill="#80AF45" d="M17.398,10.342c-0.633,0-1.147-0.57-1.147-1.268c0-0.185-0.149-0.333-0.333-0.333
			s-0.333,0.148-0.333,0.333v0.084c0,0.699-0.514,1.268-1.146,1.268c-0.633,0-1.147-0.569-1.147-1.268
			c0-0.185-0.148-0.332-0.333-0.332s-0.333,0.147-0.333,0.332c0,0.699-0.514,1.268-1.146,1.268c-0.631,0-1.146-0.569-1.146-1.268
			c0-0.185-0.149-0.332-0.334-0.332c-0.183,0-0.332,0.147-0.332,0.332v0.161c0,0.7-0.514,1.267-1.146,1.267
			s-1.147-0.567-1.147-1.267c0-0.184-0.147-0.332-0.332-0.332S6.708,9.135,6.708,9.319c0,0.7-0.515,1.267-1.146,1.267
			s-1.146-0.567-1.146-1.267c0-0.184-0.149-0.332-0.333-0.332c-0.185,0-0.334,0.148-0.334,0.332c0,0.595-0.373,1.091-0.874,1.226
			v0.671c0.495-0.081,0.93-0.364,1.208-0.782c0.329,0.495,0.869,0.818,1.479,0.818s1.15-0.323,1.479-0.818
			c0.328,0.495,0.87,0.818,1.479,0.818c0.645,0,1.211-0.36,1.533-0.902c0.332,0.451,0.848,0.742,1.426,0.742
			c0.61,0,1.15-0.323,1.479-0.818c0.328,0.495,0.869,0.818,1.48,0.818c0.627,0,1.182-0.343,1.507-0.861
			c0.33,0.471,0.858,0.777,1.452,0.777c0.047,0,0.091-0.015,0.136-0.019v-0.663C17.489,10.332,17.444,10.342,17.398,10.342"/>
	</g>
</mask>
<rect x="2.876" y="6.6" mask="url(#SVGID_1_)" fill="#FFFFFF" width="14.658" height="5.92"/>
<path fill="#FFFFFF" d="M5.906,5.157c-0.255,0.509-0.59,0.689-0.951,1.032C4.911,6.542,5.429,6.904,5.004,7.235
	C4.701,7.183,4.53,6.642,4.487,6.286C0.745,6.433,3.249,2.168,3.023-0.027c1.145,1.457,2.95,2.512,3.012,4.626
	C5.992,4.786,5.949,4.97,5.906,5.157"/>
<path fill="#FFFFFF" d="M5.036,5.34C5.308,5.808,5.646,5.979,6.019,6.3c0.054,0.319-0.449,0.628-0.016,0.941
	c0.301-0.036,0.453-0.518,0.482-0.838c3.729,0.255,1.094-3.665,1.244-5.633C6.641,2.042,4.879,2.935,4.89,4.835
	C4.938,5.004,4.986,5.172,5.036,5.34"/>
<path fill="#FFFFFF" d="M11.888,5.188c-0.255,0.51-0.589,0.689-0.952,1.032c-0.043,0.354,0.473,0.715,0.05,1.048
	c-0.304-0.052-0.475-0.594-0.518-0.95C6.727,6.465,9.23,2.2,9.005,0.004c1.144,1.458,2.949,2.511,3.012,4.627
	C11.973,4.818,11.93,5.001,11.888,5.188"/>
<path fill="#FFFFFF" d="M10.976,5.187c0.271,0.467,0.609,0.64,0.983,0.96c0.053,0.317-0.45,0.627-0.018,0.94
	c0.302-0.036,0.453-0.52,0.484-0.839c3.727,0.255,1.093-3.664,1.244-5.632c-1.09,1.273-2.853,2.164-2.842,4.066
	C10.878,4.851,10.927,5.019,10.976,5.187"/>
<path fill="#FFFFFF" d="M14.087,5.5c0.279,0.354,0.562,0.44,0.897,0.647c0.09,0.267-0.245,0.624,0.134,0.814
	c0.225-0.085,0.268-0.528,0.24-0.809c2.885-0.45,0.267-3.352,0.077-5.074c-0.634,1.293-1.841,2.377-1.538,4.011
	C13.96,5.228,14.022,5.363,14.087,5.5"/>
<path fill="#FFFFFF" d="M14.878,5.006c0.271,0.468,0.609,0.639,0.982,0.959c0.054,0.319-0.449,0.629-0.015,0.941
	c0.3-0.037,0.452-0.518,0.481-0.838c3.729,0.255,1.094-3.664,1.244-5.632c-1.089,1.273-2.851,2.164-2.841,4.065
	C14.778,4.671,14.828,4.838,14.878,5.006"/>
<polygon fill="#FFFFFF" points="11.315,18.715 10.54,18.715 10.54,20.027 9.87,20.027 9.87,18.715 8.998,18.715 10.152,14.38 "/>
<path fill="#FFFFFF" d="M12.356,16.607c-0.018,0-0.035-0.004-0.053-0.009c-0.088-0.029-0.134-0.125-0.105-0.211
	c0.145-0.432,0.213-0.507,0.409-0.581c0.076-0.029,0.18-0.068,0.373-0.245c0.178-0.162,0.397-0.644,0.178-0.979
	c-0.066-0.104-0.2-0.209-0.328-0.31c-0.029-0.022-0.06-0.046-0.09-0.071c-0.191,0.109-0.193,0.206-0.196,0.348
	c-0.003,0.188-0.008,0.446-0.304,0.768c-0.063,0.067-0.169,0.069-0.236,0.009c-0.068-0.062-0.072-0.168-0.01-0.236
	c0.211-0.226,0.214-0.382,0.218-0.546c0.004-0.221,0.033-0.405,0.282-0.577c-0.091-0.114-0.145-0.243-0.117-0.396
	c0.055-0.308,0.053-0.467,0.03-0.564c-0.622,0.208-0.631,0.512-0.645,0.999c-0.01,0.38-0.023,0.854-0.378,1.344
	c-0.054,0.075-0.156,0.093-0.232,0.038c-0.074-0.055-0.091-0.158-0.037-0.232c0.295-0.408,0.305-0.791,0.315-1.159
	c0.014-0.491,0.028-0.997,0.82-1.287c0.002-0.015,0.007-0.03,0.013-0.046c0.018-0.046,0.057-0.108,0.149-0.146
	c0.066-0.027,0.12-0.024,0.157-0.023c0.018-0.031,0.028-0.066,0.037-0.097c0.025-0.077,0.065-0.205,0.219-0.235
	c0.093-0.019,0.171,0.007,0.229,0.049c0.035,0.024,0.062,0.059,0.078,0.091c0.001,0.002,0.002,0.003,0.002,0.004
	c0.003,0.005,0.004,0.011,0.006,0.015c0.029,0.006,0.057,0.013,0.085,0.023c0.202,0.081,0.271,0.318,0.321,0.614
	c0.271,0.05,0.477,0.162,0.608,0.338c0.269,0.353,0.179,0.855,0.113,1.223c-0.022,0.132-0.047,0.27-0.039,0.331
	c0.011,0.092-0.054,0.176-0.145,0.187c-0.09,0.01-0.175-0.053-0.187-0.145c-0.015-0.112,0.012-0.254,0.043-0.433
	c0.058-0.322,0.128-0.726-0.051-0.961c-0.065-0.087-0.163-0.149-0.296-0.188c0.048,0.332,0.113,0.673,0.303,0.816
	c0.073,0.055,0.089,0.16,0.032,0.233c-0.055,0.073-0.159,0.087-0.233,0.032c-0.323-0.245-0.391-0.734-0.448-1.165
	c-0.002-0.011-0.004-0.021-0.006-0.034c-0.019-0.029-0.028-0.065-0.024-0.104c0.001-0.01,0.003-0.021,0.006-0.03
	c-0.028-0.182-0.068-0.386-0.122-0.405c-0.001-0.002-0.042-0.015-0.166,0.067c-0.044,0.083-0.107,0.158-0.207,0.194
	c0.037,0.146,0.04,0.353-0.023,0.714c-0.01,0.055,0.029,0.116,0.092,0.181c0.05-0.021,0.105-0.041,0.165-0.062
	c0.085-0.027,0.181,0.018,0.212,0.103c0.027,0.081-0.01,0.169-0.085,0.205c0.132,0.105,0.263,0.216,0.35,0.347
	c0.344,0.53,0.017,1.179-0.233,1.409c-0.239,0.218-0.384,0.272-0.479,0.309c-0.076,0.029-0.1,0.037-0.213,0.375
	C12.49,16.562,12.427,16.607,12.356,16.607 M3.586,16.607c-0.019,0-0.035-0.004-0.053-0.01c-0.088-0.029-0.135-0.124-0.105-0.211
	c0.145-0.431,0.213-0.506,0.409-0.58c0.077-0.029,0.181-0.068,0.373-0.245c0.178-0.162,0.397-0.644,0.179-0.979
	c-0.067-0.104-0.2-0.209-0.33-0.31C4.029,14.25,4,14.227,3.97,14.201c-0.191,0.109-0.193,0.206-0.195,0.348
	c-0.003,0.188-0.009,0.446-0.307,0.768c-0.062,0.067-0.167,0.069-0.234,0.009c-0.067-0.062-0.071-0.168-0.01-0.236
	c0.212-0.226,0.215-0.382,0.218-0.546c0.004-0.221,0.033-0.404,0.282-0.576c-0.09-0.115-0.145-0.244-0.118-0.397
	c0.056-0.309,0.054-0.468,0.031-0.564c-0.622,0.208-0.631,0.512-0.644,0.998c-0.011,0.381-0.024,0.854-0.38,1.346
	c-0.052,0.074-0.156,0.092-0.231,0.037s-0.091-0.158-0.037-0.233c0.295-0.407,0.306-0.79,0.315-1.158
	c0.014-0.491,0.027-0.997,0.82-1.287c0.002-0.015,0.006-0.03,0.012-0.046c0.018-0.046,0.058-0.108,0.149-0.146
	c0.066-0.027,0.122-0.024,0.158-0.023c0.017-0.029,0.027-0.063,0.039-0.099c0.023-0.076,0.064-0.204,0.217-0.233
	c0.097-0.018,0.178,0.009,0.236,0.055c0.025,0.02,0.045,0.045,0.062,0.068c0.004,0.007,0.007,0.014,0.011,0.02
	c0,0.001,0.001,0.002,0.001,0.003c0.003,0.004,0.004,0.01,0.007,0.013c0.027,0.006,0.056,0.013,0.083,0.023
	c0.204,0.081,0.272,0.318,0.32,0.614c0.271,0.05,0.477,0.163,0.61,0.338c0.268,0.353,0.178,0.856,0.111,1.224
	c-0.023,0.132-0.047,0.27-0.039,0.33c0.012,0.093-0.055,0.176-0.146,0.187c-0.091,0.01-0.174-0.053-0.186-0.145
	c-0.013-0.112,0.012-0.253,0.043-0.432c0.059-0.322,0.13-0.727-0.05-0.962c-0.065-0.087-0.163-0.148-0.295-0.188
	c0.047,0.331,0.113,0.672,0.302,0.815c0.073,0.055,0.088,0.16,0.032,0.233S5,14.444,4.926,14.39
	c-0.323-0.245-0.39-0.734-0.448-1.164c-0.002-0.012-0.004-0.021-0.004-0.034c-0.021-0.029-0.029-0.066-0.026-0.104
	c0.001-0.011,0.003-0.022,0.006-0.032c-0.027-0.181-0.068-0.384-0.121-0.403c0,0-0.045-0.011-0.167,0.068
	c-0.045,0.083-0.106,0.157-0.208,0.193c0.038,0.146,0.041,0.353-0.023,0.714c-0.01,0.055,0.029,0.116,0.094,0.181
	c0.05-0.021,0.104-0.041,0.165-0.062c0.086-0.027,0.181,0.018,0.212,0.103c0.028,0.081-0.01,0.169-0.086,0.205
	c0.133,0.105,0.264,0.216,0.35,0.347c0.343,0.53,0.018,1.179-0.233,1.409c-0.239,0.218-0.384,0.272-0.479,0.309
	c-0.075,0.029-0.098,0.037-0.212,0.376C3.721,16.563,3.655,16.607,3.586,16.607 M6.854,16.606c-0.018,0-0.035-0.004-0.054-0.011
	c-0.087-0.028-0.134-0.122-0.104-0.21c0.144-0.43,0.212-0.505,0.408-0.579c0.075-0.029,0.179-0.068,0.373-0.245
	c0.178-0.162,0.397-0.644,0.18-0.979c-0.068-0.104-0.201-0.21-0.331-0.311c-0.028-0.022-0.059-0.046-0.088-0.071
	c-0.191,0.109-0.193,0.206-0.196,0.349c-0.003,0.187-0.008,0.446-0.306,0.767c-0.062,0.067-0.167,0.07-0.234,0.009
	c-0.068-0.062-0.072-0.168-0.01-0.236c0.211-0.226,0.214-0.381,0.218-0.545c0.004-0.221,0.032-0.405,0.282-0.577
	c-0.092-0.114-0.146-0.244-0.119-0.397c0.056-0.308,0.055-0.466,0.03-0.563c-0.62,0.208-0.63,0.512-0.643,0.999
	c-0.011,0.38-0.024,0.854-0.38,1.345c-0.053,0.074-0.156,0.092-0.231,0.037s-0.091-0.158-0.037-0.233
	c0.295-0.407,0.305-0.79,0.315-1.158c0.014-0.491,0.027-0.997,0.819-1.287c0.003-0.016,0.007-0.031,0.014-0.047
	c0.017-0.046,0.058-0.108,0.15-0.146c0.064-0.025,0.122-0.023,0.156-0.023c0.017-0.028,0.027-0.062,0.038-0.098
	c0.023-0.07,0.065-0.205,0.219-0.233c0.104-0.021,0.189,0.012,0.247,0.064c0.014,0.013,0.026,0.026,0.036,0.04
	c0.011,0.014,0.02,0.028,0.026,0.042c0.002,0.004,0.003,0.009,0.005,0.012c0.028,0.005,0.057,0.013,0.084,0.023
	c0.203,0.081,0.272,0.318,0.32,0.615c0.271,0.049,0.477,0.161,0.608,0.337c0.27,0.352,0.18,0.855,0.114,1.223
	c-0.023,0.132-0.048,0.27-0.04,0.331c0.012,0.092-0.054,0.176-0.145,0.187c-0.094,0.01-0.175-0.053-0.186-0.145
	c-0.015-0.112,0.011-0.254,0.043-0.433c0.057-0.322,0.129-0.726-0.052-0.962c-0.064-0.086-0.162-0.147-0.295-0.187
	c0.048,0.33,0.113,0.672,0.303,0.814c0.073,0.055,0.088,0.16,0.032,0.233c-0.057,0.073-0.159,0.088-0.233,0.032
	c-0.323-0.245-0.391-0.733-0.448-1.164c-0.001-0.01-0.004-0.02-0.005-0.03c-0.02-0.031-0.03-0.068-0.026-0.107
	c0.001-0.011,0.003-0.023,0.007-0.034c-0.028-0.18-0.068-0.382-0.122-0.401c0.001,0-0.044-0.011-0.167,0.068
	c-0.043,0.083-0.106,0.157-0.207,0.192c0.037,0.147,0.041,0.353-0.023,0.714c-0.01,0.055,0.03,0.116,0.093,0.182
	c0.052-0.021,0.105-0.041,0.165-0.062c0.087-0.027,0.182,0.018,0.213,0.104c0.027,0.08-0.01,0.168-0.085,0.204
	c0.133,0.105,0.263,0.216,0.35,0.348c0.342,0.529,0.016,1.178-0.235,1.408c-0.24,0.218-0.383,0.272-0.479,0.309
	c-0.075,0.029-0.098,0.037-0.212,0.375C6.988,16.562,6.924,16.606,6.854,16.606 M15.626,16.606c-0.018,0-0.035-0.004-0.053-0.009
	c-0.088-0.029-0.135-0.124-0.105-0.212c0.145-0.43,0.212-0.505,0.408-0.579c0.076-0.029,0.18-0.068,0.372-0.245
	c0.18-0.162,0.397-0.643,0.181-0.979c-0.067-0.104-0.202-0.21-0.33-0.311c-0.029-0.022-0.06-0.045-0.09-0.071
	c-0.191,0.11-0.192,0.206-0.196,0.349c-0.002,0.187-0.008,0.446-0.305,0.767c-0.063,0.067-0.169,0.07-0.235,0.009
	c-0.068-0.062-0.071-0.168-0.01-0.236c0.212-0.226,0.215-0.381,0.218-0.546c0.005-0.22,0.033-0.404,0.283-0.576
	c-0.092-0.114-0.146-0.244-0.118-0.397c0.054-0.307,0.052-0.466,0.029-0.563c-0.621,0.208-0.63,0.512-0.643,0.999
	c-0.011,0.38-0.024,0.854-0.378,1.344c-0.055,0.075-0.158,0.093-0.233,0.038c-0.074-0.055-0.092-0.158-0.037-0.232
	c0.295-0.408,0.305-0.791,0.315-1.159c0.014-0.491,0.027-0.998,0.819-1.287c0.002-0.016,0.008-0.031,0.014-0.047
	c0.017-0.046,0.058-0.108,0.15-0.146c0.063-0.025,0.12-0.025,0.156-0.023c0.016-0.027,0.027-0.062,0.037-0.096
	c0.025-0.078,0.066-0.207,0.221-0.235c0.093-0.018,0.172,0.007,0.229,0.052c0.031,0.022,0.057,0.054,0.072,0.086
	c0.002,0,0.002,0.001,0.004,0.003v0.001c0,0.001,0,0.002,0.002,0.003c0,0,0,0,0,0.001c0.002,0.004,0.004,0.01,0.006,0.013
	c0.027,0.006,0.057,0.013,0.084,0.023c0.203,0.081,0.272,0.318,0.32,0.614c0.271,0.05,0.477,0.162,0.608,0.337
	c0.27,0.353,0.181,0.856,0.114,1.224c-0.023,0.132-0.047,0.27-0.04,0.331c0.012,0.092-0.053,0.176-0.145,0.187
	c-0.084,0.007-0.175-0.053-0.186-0.145c-0.015-0.112,0.01-0.254,0.043-0.433c0.058-0.322,0.129-0.727-0.051-0.962
	c-0.065-0.086-0.163-0.148-0.296-0.188c0.048,0.331,0.113,0.673,0.302,0.815c0.074,0.055,0.089,0.16,0.033,0.233
	c-0.057,0.073-0.161,0.088-0.233,0.032c-0.323-0.245-0.39-0.733-0.447-1.164c-0.002-0.011-0.005-0.021-0.006-0.033
	c-0.021-0.029-0.029-0.066-0.025-0.104c0.001-0.01,0.003-0.022,0.005-0.031c-0.026-0.182-0.067-0.385-0.12-0.404
	c-0.002,0-0.045-0.015-0.167,0.068c-0.045,0.082-0.107,0.155-0.207,0.192c0.037,0.146,0.041,0.353-0.025,0.714
	c-0.009,0.055,0.031,0.117,0.095,0.182c0.05-0.021,0.105-0.041,0.164-0.062c0.089-0.027,0.182,0.018,0.213,0.104
	c0.027,0.08-0.011,0.168-0.086,0.204c0.132,0.105,0.264,0.216,0.351,0.347c0.338,0.525,0.008,1.187-0.235,1.409
	c-0.239,0.218-0.384,0.272-0.479,0.309c-0.075,0.029-0.099,0.037-0.211,0.375C15.761,16.562,15.695,16.606,15.626,16.606"/>
</svg>
