<?xml version="1.0" encoding="utf-8"?>
<!-- Generator: Adobe Illustrator 16.0.0, SVG Export Plug-In . SVG Version: 6.00 Build 0)  -->
<!DOCTYPE svg PUBLIC "-//W3C//DTD SVG 1.1//EN" "http://www.w3.org/Graphics/SVG/1.1/DTD/svg11.dtd">
<svg version="1.1" id="Layer_1" xmlns="http://www.w3.org/2000/svg" xmlns:xlink="http://www.w3.org/1999/xlink" x="0px" y="0px"
	 width="20px" height="20px" viewBox="0 0 20 20" enable-background="new 0 0 20 20" xml:space="preserve">
<path display="none" fill="#2CA9E1" d="M22.959,10.206c0-6.973-5.651-12.625-12.625-12.625S-2.291,3.233-2.291,10.206
	c0,6.972,5.652,12.625,12.625,12.625S22.959,17.178,22.959,10.206"/>
<path fill="#FFFFFF" d="M15.811,7.183c0,0-2.662,1.606-2.69,6.642h-1.289C11.831,13.824,11.659,9.961,15.811,7.183"/>
<path fill="#FFFFFF" d="M12.164,13.824h-1.908c0,0,1.259-7.039-3.608-9.889C6.648,3.935,12.948,6.281,12.164,13.824"/>
<path fill="#FFFFFF" d="M10.256,13.824H8.309c0,0,1.947-6.642,8.761-9.06C17.07,4.764,11.287,7.651,10.256,13.824"/>
<path fill="#FFFFFF" d="M9.455,13.824h-1.46c0,0-0.315-4.945-3.579-9.276C4.416,4.548,9.512,8.915,9.455,13.824"/>
<path fill="#FFFFFF" d="M8.309,13.824H6.93c0,0-0.818-3.971-3.679-6.785C3.251,7.039,7.491,9.493,8.309,13.824"/>
<path fill="#FFFFFF" d="M1.117,9.922c0.542,0,1.015-0.349,1.261-0.864c0.246,0.516,0.718,0.864,1.26,0.864
	c0.541,0,1.013-0.349,1.259-0.864c0.247,0.516,0.72,0.864,1.26,0.864c0.542,0,1.015-0.349,1.261-0.864
	c0.247,0.516,0.719,0.864,1.26,0.864c0.568,0,1.062-0.386,1.296-0.943c0.255,0.475,0.708,0.792,1.223,0.792
	c0.543,0,1.015-0.349,1.262-0.863c0.245,0.514,0.718,0.863,1.258,0.863c0.556,0,1.04-0.367,1.28-0.904
	c0.252,0.495,0.714,0.826,1.242,0.826c0.54,0,1.013-0.349,1.26-0.864c0.246,0.515,0.719,0.864,1.261,0.864
	c0.521,0,0.976-0.328,1.229-0.812c-0.03-0.308-0.075-0.611-0.132-0.911c-0.005,0.017-0.018,0.028-0.018,0.045
	c0,0.728-0.484,1.32-1.079,1.32c-0.596,0-1.079-0.592-1.079-1.32c0-0.1-0.082-0.179-0.182-0.179s-0.182,0.079-0.182,0.179
	c0,0.728-0.483,1.32-1.078,1.32c-0.596,0-1.079-0.592-1.079-1.32c0-0.1-0.08-0.179-0.182-0.179c-0.101,0-0.181,0.079-0.181,0.179
	v0.079c0,0.729-0.485,1.32-1.081,1.32c-0.593,0-1.076-0.592-1.076-1.32c0-0.098-0.083-0.179-0.182-0.179
	c-0.101,0-0.183,0.081-0.183,0.179c0,0.729-0.483,1.32-1.079,1.32c-0.594,0-1.077-0.592-1.077-1.32c0-0.098-0.081-0.179-0.182-0.179
	c-0.1,0-0.181,0.081-0.181,0.179v0.15c0,0.729-0.484,1.321-1.079,1.321c-0.595,0-1.078-0.592-1.078-1.321
	c0-0.098-0.082-0.178-0.182-0.178c-0.101,0-0.182,0.08-0.182,0.178c0,0.729-0.484,1.321-1.08,1.321
	c-0.595,0-1.079-0.592-1.079-1.321c0-0.098-0.081-0.178-0.182-0.178c-0.1,0-0.182,0.08-0.182,0.178c0,0.729-0.483,1.321-1.077,1.321
	c-0.595,0-1.078-0.592-1.078-1.321c0-0.098-0.082-0.178-0.182-0.178c-0.101,0-0.182,0.08-0.182,0.178
	c0,0.729-0.484,1.321-1.079,1.321c-0.492,0-0.904-0.407-1.033-0.959C0.055,8.844,0.039,9.087,0.026,9.331
	C0.292,9.69,0.68,9.922,1.117,9.922"/>
<path fill="#FFFFFF" d="M0.941,14.044h18.157c0.056-0.12,0.117-0.235,0.167-0.358H0.773C0.824,13.809,0.886,13.924,0.941,14.044"/>
</svg>
