<?xml version="1.0" encoding="utf-8"?>
<!-- Generator: Adobe Illustrator 16.0.0, SVG Export Plug-In . SVG Version: 6.00 Build 0)  -->
<!DOCTYPE svg PUBLIC "-//W3C//DTD SVG 1.1//EN" "http://www.w3.org/Graphics/SVG/1.1/DTD/svg11.dtd">
<svg version="1.1" id="Layer_1" xmlns="http://www.w3.org/2000/svg" xmlns:xlink="http://www.w3.org/1999/xlink" x="0px" y="0px"
	 width="20px" height="20px" viewBox="0 0 20 20" enable-background="new 0 0 20 20" xml:space="preserve">
<path display="none" fill="#2CA9E1" d="M22.522,10.189c0-6.973-5.653-12.627-12.627-12.627c-6.973,0-12.627,5.654-12.627,12.627
	c0,6.974,5.654,12.627,12.627,12.627C16.869,22.816,22.522,17.163,22.522,10.189"/>
<polygon fill="#FFFFFF" points="6.516,19.521 1.88,19.521 1.88,18.324 3.417,18.324 3.417,8.981 1.88,8.981 1.88,7.782 6.516,7.782 
	6.516,8.981 4.979,8.981 4.979,18.324 6.516,18.324 "/>
<path fill="#FFFFFF" d="M15.133,14.908l-2.059-5.762l-2.064,5.762H15.133z M18.428,19.521h-1.664l-1.15-3.271h-5.078l-1.149,3.271
	H7.8l4.274-11.74h2.08L18.428,19.521z"/>
<polygon fill="#FFFFFF" points="0.814,4.809 0.814,1.123 2.999,1.123 2.999,1.559 1.214,1.559 1.214,2.685 2.886,2.685 2.886,3.119 
	1.214,3.119 1.214,4.375 3.068,4.375 3.068,4.809 "/>
<path fill="#FFFFFF" d="M3.569,4.809v-2.67h0.334v0.376c0.081-0.146,0.179-0.254,0.294-0.328c0.117-0.072,0.25-0.108,0.401-0.108
	c0.118,0,0.225,0.023,0.325,0.069c0.1,0.046,0.18,0.106,0.241,0.182c0.062,0.075,0.107,0.17,0.137,0.29
	c0.03,0.119,0.045,0.302,0.045,0.548v1.641H4.978V3.183c0-0.196-0.017-0.34-0.051-0.431c-0.032-0.09-0.085-0.16-0.156-0.209
	c-0.071-0.05-0.153-0.075-0.248-0.075c-0.179,0-0.32,0.066-0.426,0.198C3.991,2.8,3.939,3.026,3.939,3.349v1.459H3.569z"/>
<path fill="#FFFFFF" d="M5.918,4.809V1.123h0.369v1.322C6.375,2.323,6.474,2.232,6.583,2.17c0.108-0.061,0.229-0.092,0.363-0.092
	c0.232,0,0.417,0.075,0.55,0.223C7.633,2.449,7.7,2.72,7.7,3.115v1.693h-0.37V3.115c0-0.229-0.042-0.396-0.123-0.496
	C7.125,2.518,7.011,2.468,6.867,2.468c-0.16,0-0.296,0.064-0.41,0.192c-0.112,0.131-0.17,0.358-0.17,0.688v1.46H5.918z"/>
<path fill="#FFFFFF" d="M9.661,3.469c-0.136,0.066-0.338,0.124-0.606,0.17C8.899,3.666,8.79,3.696,8.729,3.732
	C8.667,3.766,8.618,3.814,8.584,3.877C8.55,3.94,8.532,4.012,8.532,4.094c0,0.129,0.039,0.23,0.119,0.306s0.187,0.115,0.328,0.115
	c0.132,0,0.25-0.034,0.359-0.103c0.109-0.07,0.189-0.16,0.244-0.277c0.052-0.115,0.079-0.282,0.079-0.5V3.469z M9.692,4.479
	C9.567,4.608,9.438,4.706,9.304,4.771C9.17,4.836,9.031,4.868,8.888,4.868c-0.229,0-0.41-0.068-0.547-0.206
	C8.205,4.526,8.138,4.341,8.138,4.106c0-0.153,0.032-0.29,0.095-0.41c0.064-0.119,0.152-0.21,0.263-0.279
	c0.11-0.066,0.279-0.116,0.502-0.148C9.298,3.225,9.52,3.173,9.661,3.111l0.003-0.116c0-0.183-0.033-0.311-0.097-0.384
	C9.474,2.505,9.332,2.45,9.141,2.45c-0.173,0-0.302,0.037-0.388,0.107C8.668,2.629,8.605,2.764,8.565,2.961l-0.364-0.06
	c0.05-0.288,0.157-0.497,0.315-0.628c0.157-0.131,0.385-0.195,0.68-0.195c0.23,0,0.41,0.044,0.541,0.129
	c0.131,0.087,0.213,0.193,0.247,0.32c0.035,0.127,0.052,0.315,0.052,0.558V3.69c0,0.422,0.008,0.688,0.023,0.797
	c0.017,0.11,0.048,0.218,0.095,0.322H9.768C9.728,4.716,9.702,4.606,9.692,4.479"/>
<path fill="#FFFFFF" d="M10.615,4.809v-2.67h0.334v0.376c0.08-0.146,0.178-0.254,0.293-0.328c0.117-0.072,0.25-0.108,0.402-0.108
	c0.117,0,0.223,0.023,0.322,0.069c0.102,0.046,0.182,0.106,0.242,0.182c0.062,0.075,0.107,0.17,0.137,0.29
	c0.031,0.119,0.045,0.302,0.045,0.548v1.641h-0.367V3.183c0-0.196-0.018-0.34-0.053-0.431c-0.031-0.09-0.086-0.16-0.156-0.209
	c-0.07-0.05-0.152-0.075-0.248-0.075c-0.178,0-0.318,0.066-0.426,0.198c-0.104,0.133-0.158,0.359-0.158,0.683v1.459H10.615z"/>
<path fill="#FFFFFF" d="M14.395,3.831l0.365,0.058c-0.043,0.318-0.146,0.562-0.314,0.729c-0.17,0.167-0.373,0.251-0.607,0.251
	c-0.285,0-0.521-0.118-0.709-0.353c-0.184-0.236-0.277-0.583-0.277-1.044c0-0.464,0.094-0.812,0.279-1.045
	c0.188-0.231,0.428-0.347,0.723-0.347c0.225,0,0.416,0.069,0.57,0.211c0.156,0.14,0.256,0.352,0.299,0.633l-0.361,0.065
	c-0.033-0.18-0.094-0.314-0.182-0.404c-0.086-0.089-0.191-0.134-0.314-0.134c-0.182,0-0.336,0.082-0.455,0.243
	c-0.119,0.163-0.18,0.418-0.18,0.771c0,0.363,0.059,0.626,0.174,0.789c0.115,0.163,0.264,0.244,0.441,0.244
	c0.139,0,0.262-0.055,0.361-0.163C14.305,4.228,14.369,4.058,14.395,3.831"/>
<path fill="#FFFFFF" d="M15.35,3.217h1.223c-0.018-0.23-0.066-0.405-0.148-0.518c-0.119-0.166-0.271-0.249-0.453-0.249
	c-0.168,0-0.309,0.068-0.426,0.208C15.428,2.796,15.363,2.982,15.35,3.217 M16.57,3.949l0.381,0.058
	c-0.064,0.286-0.178,0.5-0.344,0.644c-0.17,0.146-0.375,0.218-0.621,0.218c-0.311,0-0.561-0.118-0.752-0.354
	c-0.191-0.234-0.287-0.574-0.287-1.019c0-0.462,0.096-0.813,0.289-1.055c0.193-0.243,0.438-0.364,0.736-0.364
	c0.281,0,0.518,0.119,0.707,0.357c0.191,0.238,0.283,0.583,0.283,1.034v0.12h-1.635c0.014,0.299,0.086,0.527,0.207,0.679
	c0.127,0.153,0.277,0.23,0.453,0.23C16.268,4.498,16.461,4.314,16.57,3.949"/>
<path fill="#FFFFFF" d="M17.666,3.477c0,0.345,0.061,0.602,0.18,0.768c0.121,0.169,0.26,0.252,0.42,0.252
	c0.156,0,0.293-0.08,0.408-0.241c0.115-0.16,0.174-0.404,0.174-0.729c0-0.374-0.059-0.648-0.174-0.818
	c-0.115-0.172-0.262-0.258-0.438-0.258c-0.154,0-0.289,0.083-0.4,0.247C17.721,2.864,17.666,3.123,17.666,3.477 M18.84,4.809V4.472
	c-0.066,0.128-0.152,0.227-0.258,0.294s-0.221,0.102-0.342,0.102c-0.258,0-0.482-0.122-0.67-0.366
	c-0.189-0.243-0.283-0.587-0.283-1.029c0-0.303,0.041-0.561,0.123-0.771c0.088-0.212,0.197-0.368,0.338-0.47
	c0.139-0.103,0.293-0.154,0.463-0.154c0.125,0,0.236,0.033,0.344,0.098c0.102,0.063,0.189,0.154,0.26,0.269V1.123h0.371v3.686H18.84
	z"/>
</svg>
