<?xml version="1.0" encoding="utf-8"?>
<!-- Generator: Adobe Illustrator 16.0.0, SVG Export Plug-In . SVG Version: 6.00 Build 0)  -->
<!DOCTYPE svg PUBLIC "-//W3C//DTD SVG 1.1//EN" "http://www.w3.org/Graphics/SVG/1.1/DTD/svg11.dtd">
<svg version="1.1" id="Layer_1" xmlns="http://www.w3.org/2000/svg" xmlns:xlink="http://www.w3.org/1999/xlink" x="0px" y="0px"
	 width="20px" height="20px" viewBox="0 0 20 20" enable-background="new 0 0 20 20" xml:space="preserve">
<path display="none" fill="#80AF45" d="M22.904,9.474c0-6.974-5.652-12.627-12.625-12.627C3.308-3.153-2.345,2.5-2.345,9.474
	c0,6.973,5.653,12.626,12.624,12.626C17.252,22.1,22.904,16.446,22.904,9.474"/>
<line fill="none" stroke="#FFFFFF" stroke-width="0.48" stroke-miterlimit="10" x1="0" y1="14.495" x2="19.684" y2="14.495"/>
<line fill="none" stroke="#FFFFFF" stroke-width="0.96" stroke-miterlimit="10" x1="2.462" y1="14.488" x2="2.462" y2="11.615"/>
<path fill="none" stroke="#FFFFFF" stroke-width="0.96" stroke-linecap="round" stroke-miterlimit="10" d="M2.815,11.616
	c0,0,0.108-0.179,0.316-0.481"/>
<path fill="none" stroke="#FFFFFF" stroke-width="0.96" stroke-linecap="round" stroke-miterlimit="10" stroke-dasharray="2.657,2.657" d="
	M5.975,7.783c1.618-1.558,3.791-3.131,6.35-3.72"/>
<path fill="none" stroke="#FFFFFF" stroke-width="0.96" stroke-linecap="round" stroke-miterlimit="10" d="M17.053,4.35
	c0.277,0.139,0.526,0.311,0.718,0.53 M13.371,3.881c0.348-0.039,0.701-0.062,1.061-0.062c0,0,0.38-0.003,0.896,0.061 M3.846,10.158
	c0.198-0.255,0.422-0.533,0.673-0.825"/>
<path fill="none" stroke="#FFFFFF" stroke-width="0.96" stroke-linecap="round" stroke-miterlimit="10" d="M2.815,11.616
	c0,0,0.12-0.172,0.348-0.459 M18.075,5.404c0.058,0.17,0.087,0.36,0.08,0.57"/>
<path fill="none" stroke="#FFFFFF" stroke-width="0.96" stroke-linecap="round" stroke-miterlimit="10" stroke-dasharray="2.364,2.364" d="
	M5.914,8.381c1.515-1.242,3.521-2.468,5.873-2.919"/>
<path fill="none" stroke="#FFFFFF" stroke-width="0.96" stroke-linecap="round" stroke-miterlimit="10" d="M16.003,5.667
	c0.257,0.101,0.494,0.229,0.687,0.39 M12.723,5.328c0.311-0.03,0.626-0.046,0.946-0.046c0,0,0.331-0.004,0.791,0.044 M3.861,10.339
	c0.193-0.213,0.411-0.444,0.652-0.686"/>
<path fill="none" stroke="#FFFFFF" stroke-width="0.96" stroke-linecap="round" stroke-miterlimit="10" d="M2.76,11.545
	c0,0,0.133-0.161,0.386-0.426 M17.027,6.472c0.081,0.163,0.126,0.349,0.117,0.56"/>
<path fill="none" stroke="#FFFFFF" stroke-width="0.96" stroke-linecap="round" stroke-miterlimit="10" stroke-dasharray="3.092,3.092" d="
	M6.935,8.186C7.94,7.625,9.098,7.13,10.381,6.838"/>
<path fill="none" stroke="#FFFFFF" stroke-width="0.96" stroke-linecap="round" stroke-miterlimit="10" d="M14.836,6.809
	c0.227,0.064,0.439,0.146,0.626,0.246 M11.602,6.629c0.401-0.046,0.814-0.07,1.235-0.07c0,0,0.279-0.003,0.673,0.029 M3.93,10.356
	c0.272-0.247,0.589-0.519,0.947-0.797"/>
<path fill="none" stroke="#FFFFFF" stroke-width="0.96" stroke-linecap="round" stroke-miterlimit="10" d="M2.976,11.545
	c0,0,0.149-0.145,0.433-0.377 M15.889,7.399c0.118,0.15,0.185,0.329,0.175,0.538"/>
<path fill="none" stroke="#FFFFFF" stroke-width="0.96" stroke-linecap="round" stroke-miterlimit="10" stroke-dasharray="2.737,2.737" d="
	M7.216,8.885c0.928-0.392,1.986-0.729,3.147-0.927"/>
<path fill="none" stroke="#FFFFFF" stroke-width="0.96" stroke-linecap="round" stroke-miterlimit="10" d="M11.45,7.819
	c0.356-0.03,0.722-0.046,1.095-0.046c0,0,1.373-0.009,2.281,0.294 M4.34,10.467c0.271-0.187,0.58-0.388,0.922-0.592"/>
<path fill="none" stroke="#FFFFFF" stroke-width="0.96" stroke-linecap="round" stroke-miterlimit="10" d="M15.351,8.325
	c0.169,0.13,0.27,0.291,0.26,0.489"/>
<polygon fill="#FFFFFF" points="13.562,13.188 13.562,10.163 14.049,10.163 15.066,12.184 15.066,10.163 15.531,10.163 
	15.531,13.188 15.028,13.188 14.027,11.215 14.027,13.188 "/>
<polygon fill="#FFFFFF" points="16.6,12.754 16.6,11.967 15.948,11.967 15.948,11.424 16.6,11.424 16.6,10.637 17.032,10.637 
	17.032,11.424 17.685,11.424 17.685,11.967 17.032,11.967 17.032,12.754 "/>
<path fill="#FFFFFF" d="M18.584,10.674v0.861h0.276c0.187,0,0.313-0.014,0.38-0.039c0.067-0.026,0.123-0.074,0.164-0.143
	c0.043-0.068,0.065-0.151,0.065-0.25c0-0.102-0.022-0.187-0.065-0.255c-0.046-0.069-0.099-0.115-0.165-0.139
	c-0.064-0.024-0.2-0.035-0.411-0.035H18.584z M18.084,13.188v-3.025h0.806c0.3,0,0.496,0.013,0.589,0.041
	c0.146,0.048,0.269,0.148,0.363,0.3c0.096,0.155,0.143,0.35,0.143,0.591c0,0.219-0.041,0.402-0.124,0.551
	c-0.081,0.148-0.185,0.25-0.309,0.311c-0.124,0.062-0.338,0.09-0.641,0.09h-0.327v1.142H18.084z"/>
<line fill="none" stroke="#FFFFFF" stroke-width="0.96" stroke-linecap="round" stroke-miterlimit="10" x1="2.462" y1="11.695" x2="3.613" y2="11.695"/>
</svg>
