<?xml version="1.0" encoding="utf-8"?>
<!-- Generator: Adobe Illustrator 16.0.0, SVG Export Plug-In . SVG Version: 6.00 Build 0)  -->
<!DOCTYPE svg PUBLIC "-//W3C//DTD SVG 1.1//EN" "http://www.w3.org/Graphics/SVG/1.1/DTD/svg11.dtd">
<svg version="1.1" id="Layer_1" xmlns="http://www.w3.org/2000/svg" xmlns:xlink="http://www.w3.org/1999/xlink" x="0px" y="0px"
	 width="20px" height="20px" viewBox="0 0 20 20" enable-background="new 0 0 20 20" xml:space="preserve">
<path display="none" fill="#FF0000" d="M9.895-2.763c-6.978,0-12.626,5.649-12.626,12.627S2.917,22.49,9.895,22.49
	s12.626-5.648,12.626-12.626S16.873-2.763,9.895-2.763 M16.818,14.682c0,3.055-3.102,5.538-6.923,5.538
	c-3.821,0-6.913-2.483-6.913-5.538V10.75c0.138,0.351,0.388,0.637,0.729,0.831c0.637,0.379,1.505,0.379,2.142,0
	c0.276-0.156,0.489-0.379,0.627-0.636c0.148,0.257,0.36,0.48,0.637,0.636c0.637,0.379,1.505,0.379,2.141,0
	c0.277-0.156,0.49-0.379,0.628-0.636c0.148,0.257,0.36,0.48,0.637,0.636c0.314,0.195,0.692,0.287,1.071,0.287
	s0.747-0.092,1.07-0.287c0.268-0.156,0.48-0.368,0.628-0.618c0.14,0.259,0.351,0.479,0.628,0.637
	c0.646,0.36,1.523,0.332,2.178-0.092c0.342-0.222,0.592-0.526,0.721-0.886V14.682z"/>
<path fill="#FFFFFF" d="M16.816,7.94v1.514l-0.342,0.019c0.047,0.554-0.175,1.016-0.618,1.301c-0.508,0.324-1.218,0.351-1.717,0.074
	c-0.286-0.156-0.608-0.479-0.627-1.107V9.629H13.07V9.74c-0.02,0.609-0.352,0.932-0.629,1.098c-0.498,0.286-1.199,0.296-1.698,0
	c-0.287-0.166-0.619-0.498-0.637-1.106V9.639H9.664v0.093c-0.01,0.608-0.342,0.94-0.628,1.106c-0.498,0.286-1.2,0.286-1.698,0
	c-0.287-0.166-0.619-0.498-0.637-1.106V9.639H6.258v0.093c-0.01,0.608-0.342,0.94-0.628,1.106c-0.498,0.296-1.2,0.296-1.698,0
	c-0.296-0.175-0.646-0.525-0.637-1.199H2.98V7.94H16.816z"/>
<path fill="#FFFFFF" d="M16.818,10.262v4.061c0,3.055-3.102,5.538-6.923,5.538c-3.821,0-6.913-2.483-6.913-5.538v-3.932
	c0.138,0.351,0.388,0.637,0.729,0.83c0.637,0.379,1.505,0.379,2.142,0c0.276-0.156,0.489-0.377,0.627-0.637
	c0.148,0.26,0.36,0.48,0.637,0.637c0.637,0.379,1.505,0.379,2.141,0c0.277-0.156,0.49-0.377,0.628-0.637
	c0.148,0.26,0.36,0.48,0.637,0.637c0.314,0.194,0.692,0.287,1.071,0.287s0.747-0.093,1.07-0.287c0.268-0.156,0.48-0.369,0.628-0.617
	c0.14,0.258,0.351,0.479,0.628,0.636c0.646,0.36,1.523,0.333,2.178-0.093C16.439,10.926,16.689,10.621,16.818,10.262"/>
<defs>
	<filter id="Adobe_OpacityMaskFilter" filterUnits="userSpaceOnUse" x="2.852" y="9.639" width="0.129" height="0.748">
		<feColorMatrix  type="matrix" values="1 0 0 0 0  0 1 0 0 0  0 0 1 0 0  0 0 0 1 0"/>
	</filter>
</defs>
<mask maskUnits="userSpaceOnUse" x="2.852" y="9.639" width="0.129" height="0.748" id="SVGID_1_">
	<g filter="url(#Adobe_OpacityMaskFilter)">
	</g>
</mask>
<path mask="url(#SVGID_1_)" fill="#2CA9E1" d="M2.852,9.639H2.98v0.748C2.888,10.165,2.852,9.906,2.852,9.639"/>
<defs>
	<filter id="Adobe_OpacityMaskFilter_1_" filterUnits="userSpaceOnUse" x="16.816" y="9.445" width="0.106" height="0.812">
		<feColorMatrix  type="matrix" values="1 0 0 0 0  0 1 0 0 0  0 0 1 0 0  0 0 0 1 0"/>
	</filter>
</defs>
<mask maskUnits="userSpaceOnUse" x="16.816" y="9.445" width="0.106" height="0.812" id="SVGID_2_">
	<g filter="url(#Adobe_OpacityMaskFilter_1_)">
	</g>
</mask>
<path mask="url(#SVGID_2_)" fill="#2CA9E1" d="M16.918,9.445c0.018,0.295-0.009,0.562-0.102,0.812V9.454L16.918,9.445z"/>
<path fill="#FFFFFF" d="M5.999,6.146C5.714,6.738,5.351,6.952,4.955,7.354C4.901,7.763,5.453,8.17,4.989,8.561
	C4.663,8.506,4.49,7.885,4.451,7.475C0.425,7.718,3.199,2.749,2.997,0.223c1.204,1.658,3.126,2.84,3.152,5.278
	C6.099,5.717,6.049,5.931,5.999,6.146"/>
<path fill="#FFFFFF" d="M5.06,6.374c0.282,0.533,0.643,0.725,1.038,1.088C6.149,7.83,5.604,8.194,6.062,8.548
	C6.386,8.5,6.561,7.94,6.599,7.571c4.003,0.224,1.245-4.247,1.445-6.52C6.847,2.542,4.936,3.603,4.91,5.795
	C4.959,5.988,5.008,6.181,5.06,6.374"/>
<path fill="#FFFFFF" d="M12.739,6.062c-0.284,0.594-0.647,0.807-1.045,1.208c-0.052,0.409,0.499,0.815,0.036,1.207
	c-0.327-0.053-0.5-0.675-0.539-1.086C7.167,7.635,9.939,2.666,9.737,0.14c1.202,1.658,3.126,2.84,3.151,5.279
	C12.84,5.634,12.788,5.849,12.739,6.062"/>
<path fill="#FFFFFF" d="M11.084,6.475c0.281,0.534,0.643,0.725,1.037,1.088c0.053,0.367-0.494,0.733-0.035,1.085
	c0.324-0.047,0.498-0.606,0.537-0.976c4.002,0.224,1.244-4.247,1.445-6.52c-1.195,1.49-3.108,2.551-3.134,4.743
	C10.983,6.089,11.033,6.28,11.084,6.475"/>
<path fill="#FFFFFF" d="M14.134,6.465c0.21,0.461,0.488,0.62,0.79,0.929c0.032,0.319-0.404,0.651-0.052,0.948
	c0.256-0.049,0.403-0.541,0.442-0.863c3.133,0.105,1.068-3.742,1.276-5.734c-0.97,1.33-2.491,2.299-2.56,4.217
	C14.066,6.129,14.1,6.297,14.134,6.465"/>
</svg>
