<?xml version="1.0" encoding="utf-8"?>
<!-- Generator: Adobe Illustrator 16.0.0, SVG Export Plug-In . SVG Version: 6.00 Build 0)  -->
<!DOCTYPE svg PUBLIC "-//W3C//DTD SVG 1.1//EN" "http://www.w3.org/Graphics/SVG/1.1/DTD/svg11.dtd">
<svg version="1.1" id="Layer_1" xmlns="http://www.w3.org/2000/svg" xmlns:xlink="http://www.w3.org/1999/xlink" x="0px" y="0px"
	 width="20px" height="20px" viewBox="0 0 20 20" enable-background="new 0 0 20 20" xml:space="preserve">
<path display="none" fill="#2CA9E1" d="M22.522,9.859c0-6.973-5.653-12.627-12.627-12.627c-6.973,0-12.627,5.654-12.627,12.627
	S2.922,22.486,9.896,22.486C16.869,22.486,22.522,16.832,22.522,9.859"/>
<polygon fill="#FFFFFF" points="5.962,16.204 0.95,16.204 0.95,14.908 2.612,14.908 2.612,4.808 0.95,4.808 0.95,3.513 5.962,3.513 
	5.962,4.808 4.301,4.808 4.301,14.908 5.962,14.908 "/>
<path fill="#FFFFFF" d="M15.277,11.219l-2.225-6.23l-2.232,6.23H15.277z M18.841,16.204h-1.8l-1.243-3.537H10.31l-1.246,3.537H7.351
	l4.62-12.691h2.25L18.841,16.204z"/>
</svg>
