<?xml version="1.0" encoding="utf-8"?>
<!-- Generator: Adobe Illustrator 16.0.0, SVG Export Plug-In . SVG Version: 6.00 Build 0)  -->
<!DOCTYPE svg PUBLIC "-//W3C//DTD SVG 1.1//EN" "http://www.w3.org/Graphics/SVG/1.1/DTD/svg11.dtd">
<svg version="1.1" id="Layer_1" xmlns="http://www.w3.org/2000/svg" xmlns:xlink="http://www.w3.org/1999/xlink" x="0px" y="0px"
	 width="20px" height="20px" viewBox="0 0 20 20" enable-background="new 0 0 20 20" xml:space="preserve">
<path display="none" fill="#80AF45" d="M22.676,9.82c0-6.973-5.549-12.625-12.396-12.625C3.434-2.805-2.116,2.848-2.116,9.82
	c0,6.974,5.55,12.626,12.396,12.626C17.127,22.446,22.676,16.794,22.676,9.82"/>
<path fill="none" stroke="#FFFFFF" stroke-width="0.762" stroke-linecap="round" stroke-linejoin="round" stroke-miterlimit="10" d="
	M-2.319,11.808c0,0.678,0.706,1.229,1.578,1.229s1.579-0.551,1.579-1.229c0,0.678,0.706,1.229,1.577,1.229
	c0.871,0,1.579-0.551,1.579-1.229c0,0.678,0.707,1.229,1.578,1.229s1.577-0.551,1.577-1.229c0,0.678,0.707,1.229,1.579,1.229
	c0.872,0,1.578-0.551,1.578-1.229v-0.123c0,0.677,0.707,1.228,1.578,1.228c0.873,0,1.579-0.551,1.579-1.228
	c0,0.677,0.706,1.228,1.578,1.228c0.871,0,1.578-0.551,1.578-1.228V11.62c0,0.678,0.705,1.228,1.578,1.228
	c0.871,0,1.578-0.55,1.578-1.228c0,0.678,0.707,1.228,1.577,1.228c0.872,0,1.578-0.55,1.578-1.228"/>
<path fill="#FFFFFF" d="M22.18,6.285h-23.8C-1.941,7.408-2.116,8.594-2.116,9.82c0,1.049,0.127,2.066,0.364,3.04
	c0.269,0.162,0.602,0.263,0.971,0.263c0.875,0,1.583-0.55,1.583-1.227c0,0.677,0.71,1.227,1.586,1.227
	c0.267,0,0.517-0.057,0.738-0.147c-0.075-0.229-0.12-0.464-0.12-0.706c0-2.208,3.256-3.997,7.273-3.997
	c4.019,0,7.276,1.789,7.276,3.997c0,0.176-0.027,0.347-0.068,0.515c0.223,0.095,0.476,0.151,0.746,0.151
	c0.874,0,1.584-0.55,1.584-1.227c0,0.677,0.709,1.227,1.583,1.227c0.359,0,0.688-0.095,0.953-0.25
	c0.209-0.921,0.323-1.879,0.323-2.865C22.676,8.594,22.5,7.408,22.18,6.285"/>
</svg>
