<?xml version="1.0" encoding="utf-8"?>
<!-- Generator: Adobe Illustrator 16.0.0, SVG Export Plug-In . SVG Version: 6.00 Build 0)  -->
<!DOCTYPE svg PUBLIC "-//W3C//DTD SVG 1.1//EN" "http://www.w3.org/Graphics/SVG/1.1/DTD/svg11.dtd">
<svg version="1.1" id="Layer_1" xmlns="http://www.w3.org/2000/svg" xmlns:xlink="http://www.w3.org/1999/xlink" x="0px" y="0px"
	 width="20px" height="20px" viewBox="0 0 20 20" enable-background="new 0 0 20 20" xml:space="preserve">
<path display="none" fill="#F9AF19" d="M22.734,9.497c0-6.972-5.653-12.624-12.625-12.624c-6.974,0-12.625,5.652-12.625,12.624
	c0,6.974,5.651,12.625,12.625,12.625C17.081,22.122,22.734,16.471,22.734,9.497"/>
<polygon fill="#FFFFFF" points="0.021,8.594 0.021,3.156 0.896,3.156 2.722,6.787 2.722,3.156 3.56,3.156 3.56,8.594 2.657,8.594 
	0.859,5.048 0.859,8.594 "/>
<polygon fill="#FFFFFF" points="5.478,7.811 5.478,6.399 4.309,6.399 4.309,5.423 5.478,5.423 5.478,4.01 6.257,4.01 6.257,5.423 
	7.43,5.423 7.43,6.399 6.257,6.399 6.257,7.811 "/>
<path fill="#FFFFFF" d="M9.042,4.076v1.548H9.54c0.336,0,0.562-0.025,0.684-0.071c0.118-0.047,0.217-0.132,0.293-0.254
	c0.078-0.123,0.118-0.274,0.118-0.453c0-0.181-0.04-0.334-0.121-0.457c-0.078-0.124-0.175-0.206-0.291-0.249
	c-0.119-0.043-0.367-0.064-0.741-0.064H9.042z M8.145,8.594V3.156h1.447c0.539,0,0.892,0.026,1.057,0.079
	c0.264,0.083,0.482,0.263,0.655,0.536c0.171,0.275,0.258,0.629,0.258,1.062c0,0.394-0.075,0.722-0.223,0.988
	c-0.149,0.266-0.334,0.453-0.558,0.561c-0.223,0.106-0.605,0.162-1.149,0.162h-0.59v2.051H8.145z"/>
<polygon fill="#FFFFFF" points="13.271,7.811 13.271,6.399 12.102,6.399 12.102,5.423 13.271,5.423 13.271,4.01 14.05,4.01 
	14.05,5.423 15.221,5.423 15.221,6.399 14.05,6.399 14.05,7.811 "/>
<polygon fill="#FFFFFF" points="15.949,8.594 15.949,3.156 16.846,3.156 16.846,5.577 18.67,3.156 19.881,3.156 18.2,5.276 
	19.971,8.594 18.807,8.594 17.575,6.04 16.846,6.95 16.846,8.594 "/>
<polygon fill="#FFFFFF" points="0,17.711 0,12.271 1.346,12.271 2.156,15.985 2.96,12.271 4.312,12.271 4.312,17.711 3.476,17.711 
	3.476,13.426 2.586,17.711 1.72,17.711 0.838,13.426 0.838,17.711 "/>
<path fill="#FFFFFF" d="M7.277,15.715v-0.921h1.939v2.166c-0.196,0.23-0.472,0.429-0.831,0.593
	c-0.358,0.167-0.718,0.249-1.079,0.249c-0.44,0-0.829-0.105-1.165-0.324c-0.337-0.216-0.603-0.539-0.8-0.971
	c-0.196-0.432-0.294-0.939-0.294-1.521c0-0.6,0.1-1.111,0.298-1.537s0.458-0.744,0.775-0.953c0.319-0.21,0.698-0.315,1.141-0.315
	c0.531,0,0.957,0.135,1.278,0.405c0.32,0.271,0.525,0.67,0.617,1.192l-0.89,0.205c-0.068-0.277-0.188-0.493-0.368-0.642
	c-0.177-0.149-0.39-0.223-0.637-0.223c-0.383,0-0.694,0.149-0.933,0.447c-0.236,0.298-0.356,0.753-0.356,1.362
	c0,0.655,0.129,1.154,0.386,1.496c0.221,0.294,0.52,0.44,0.894,0.44c0.176,0,0.357-0.041,0.547-0.125
	c0.19-0.081,0.359-0.194,0.507-0.338v-0.687H7.277z"/>
<polygon fill="#FFFFFF" points="10.036,17.711 10.036,12.271 11.383,12.271 12.192,15.985 12.998,12.271 14.35,12.271 14.35,17.711 
	13.513,17.711 13.513,13.426 12.623,17.711 11.758,17.711 10.875,13.426 10.875,17.711 "/>
<polygon fill="#FFFFFF" points="16.241,17.711 16.241,13.191 14.917,13.191 14.917,12.271 18.459,12.271 18.459,13.191 
	17.139,13.191 17.139,17.711 "/>
</svg>
