<?xml version="1.0" encoding="utf-8"?>
<!-- Generator: Adobe Illustrator 16.0.0, SVG Export Plug-In . SVG Version: 6.00 Build 0)  -->
<!DOCTYPE svg PUBLIC "-//W3C//DTD SVG 1.1//EN" "http://www.w3.org/Graphics/SVG/1.1/DTD/svg11.dtd">
<svg version="1.1" id="Layer_1" xmlns="http://www.w3.org/2000/svg" xmlns:xlink="http://www.w3.org/1999/xlink" x="0px" y="0px"
	 width="20px" height="20px" viewBox="0 0 20 20" enable-background="new 0 0 20 20" xml:space="preserve">
<path display="none" fill="#2CA9E1" d="M22.932,10.439c0-6.974-5.653-12.627-12.626-12.627c-6.971,0-12.624,5.653-12.624,12.627
	c0,6.973,5.653,12.625,12.624,12.625C17.278,23.064,22.932,17.412,22.932,10.439"/>
<line fill="none" stroke="#FFFFFF" stroke-width="0.762" stroke-miterlimit="10" x1="2.303" y1="19.877" x2="18.757" y2="19.877"/>
<path fill="#FFFFFF" d="M16.095,7.827c0-4.213-2.594-7.627-5.794-7.627c-3.197,0-5.791,3.414-5.791,7.627
	c0,4.212,2.594,7.627,5.791,7.627C13.501,15.454,16.095,12.039,16.095,7.827"/>
<rect x="9.532" y="11.062" fill="#FFFFFF" width="1.542" height="8.582"/>
<path fill="#FFFFFF" d="M3.301,18.358c0.551,0.007,1.229-0.176,1.686-0.846c0.773-1.131,0.131-2.077-0.065-2.402
	c-0.197-0.327-1.621-2.829-1.621-2.829s-1.425,2.502-1.62,2.829c-0.196,0.325-0.84,1.271-0.067,2.402
	C2.072,18.183,2.749,18.365,3.301,18.358"/>
</svg>
