<?xml version="1.0" encoding="utf-8"?>
<!-- Generator: Adobe Illustrator 16.0.0, SVG Export Plug-In . SVG Version: 6.00 Build 0)  -->
<!DOCTYPE svg PUBLIC "-//W3C//DTD SVG 1.1//EN" "http://www.w3.org/Graphics/SVG/1.1/DTD/svg11.dtd">
<svg version="1.1" id="Layer_1" xmlns="http://www.w3.org/2000/svg" xmlns:xlink="http://www.w3.org/1999/xlink" x="0px" y="0px"
	 width="20px" height="20px" viewBox="0 0 20 20" enable-background="new 0 0 20 20" xml:space="preserve">
<path display="none" fill="#80AF45" d="M22.522,10.293c0,3.831-1.704,7.258-4.403,9.578c-0.285,0.24-0.579,0.479-0.893,0.701
	c-2.063,1.481-4.596,2.348-7.331,2.348s-5.268-0.866-7.331-2.348c-0.313-0.223-0.608-0.461-0.893-0.701
	c-2.699-2.32-4.403-5.747-4.403-9.578c0-6.972,5.656-12.627,12.627-12.627C16.867-2.334,22.522,3.321,22.522,10.293"/>
<path fill="#FFFFFF" d="M18.12,19.423c-0.278,0.234-0.568,0.469-0.873,0.685H2.916c-0.305-0.216-0.594-0.45-0.873-0.685h7.445
	v-4.158c-2.845-0.487-5.033-3.691-5.033-7.57c0-4.222,2.593-7.643,5.797-7.643c3.205,0,5.807,3.421,5.807,7.643
	c0,3.879-2.197,7.075-5.033,7.57v4.158H18.12z"/>
</svg>
