<?xml version="1.0" encoding="utf-8"?>
<!-- Generator: Adobe Illustrator 16.0.0, SVG Export Plug-In . SVG Version: 6.00 Build 0)  -->
<!DOCTYPE svg PUBLIC "-//W3C//DTD SVG 1.1//EN" "http://www.w3.org/Graphics/SVG/1.1/DTD/svg11.dtd">
<svg version="1.1" id="Layer_1" xmlns="http://www.w3.org/2000/svg" xmlns:xlink="http://www.w3.org/1999/xlink" x="0px" y="0px"
	 width="20px" height="20px" viewBox="0 0 20 20" enable-background="new 0 0 20 20" xml:space="preserve">
<path display="none" fill="#80AF45" d="M22.822,10.401c0-6.974-5.652-12.625-12.625-12.625c-6.973,0-12.625,5.651-12.625,12.625
	c0,6.972,5.652,12.625,12.625,12.625C17.17,23.026,22.822,17.373,22.822,10.401"/>
<path fill="#FFFFFF" d="M0.601,5.8c0.314,0.656,0.916,1.102,1.605,1.102c0.69,0,1.291-0.445,1.605-1.102
	c0.315,0.656,0.917,1.102,1.607,1.102S6.71,6.456,7.024,5.8C7.338,6.456,7.94,6.901,8.629,6.901c0.725,0,1.354-0.492,1.653-1.203
	c0.324,0.605,0.901,1.011,1.558,1.011c0.69,0,1.292-0.444,1.607-1.101c0.312,0.656,0.915,1.101,1.604,1.101
	c0.709,0,1.324-0.469,1.631-1.152c0.32,0.63,0.91,1.052,1.582,1.052c0.689,0,1.291-0.444,1.604-1.101
	c0.315,0.656,0.918,1.101,1.606,1.101c0.426,0,0.809-0.184,1.119-0.469c-0.035-0.18-0.086-0.352-0.129-0.527
	c-0.25,0.326-0.596,0.541-0.99,0.541c-0.758,0-1.375-0.755-1.375-1.684c0-0.126-0.104-0.228-0.231-0.228
	c-0.127,0-0.231,0.102-0.231,0.228c0,0.929-0.615,1.684-1.373,1.684c-0.759,0-1.375-0.755-1.375-1.684
	c0-0.126-0.103-0.228-0.23-0.228s-0.23,0.102-0.23,0.228V4.57c0,0.928-0.617,1.683-1.377,1.683c-0.757,0-1.373-0.755-1.373-1.683
	c0-0.125-0.104-0.228-0.23-0.228c-0.128,0-0.232,0.103-0.232,0.228c0,0.928-0.615,1.683-1.375,1.683
	c-0.757,0-1.373-0.755-1.373-1.683c0-0.125-0.103-0.228-0.231-0.228c-0.128,0-0.231,0.103-0.231,0.228v0.193
	c0,0.927-0.617,1.682-1.376,1.682c-0.758,0-1.374-0.755-1.374-1.682c0-0.127-0.103-0.229-0.231-0.229
	c-0.128,0-0.232,0.102-0.232,0.229c0,0.927-0.616,1.682-1.374,1.682c-0.759,0-1.375-0.755-1.375-1.682
	c0-0.127-0.104-0.229-0.232-0.229c-0.127,0-0.231,0.102-0.231,0.229c0,0.927-0.616,1.682-1.374,1.682S0.832,5.69,0.832,4.764
	c0-0.127-0.103-0.229-0.231-0.229S0.37,4.637,0.37,4.764c0,0.927-0.617,1.682-1.375,1.682c-0.442,0-0.828-0.264-1.078-0.663
	C-2.126,5.97-2.165,6.16-2.199,6.352c0.321,0.333,0.731,0.55,1.194,0.55C-0.315,6.901,0.287,6.456,0.601,5.8"/>
<path fill="#FFFFFF" d="M10.01,9.31c0,4.589-2.8,8.536-6.86,9.767c-0.2-0.137-0.4-0.295-0.6-0.443c3.98-0.984,6.84-4.863,6.84-9.323
	c0-0.817-0.1-1.654-0.31-2.481v-0.02L9.05,6.71l0.01-0.01C9.03,6.593,9,6.493,8.97,6.386C8.91,6.208,8.86,6.021,8.8,5.844
	c-0.03-0.069-0.02-0.157,0.01-0.227c0.04-0.069,0.1-0.128,0.18-0.158c0.15-0.049,0.33,0.03,0.39,0.188
	C9.42,5.774,9.46,5.912,9.5,6.051c0.04,0.107,0.07,0.206,0.1,0.314l0.05,0.167v0.021C9.66,6.611,9.68,6.66,9.69,6.721
	C9.9,7.576,10.01,8.452,10.01,9.31"/>
<path fill="#FFFFFF" d="M18.11,18.447c-0.2,0.158-0.399,0.305-0.601,0.453c-4.18-1.152-7.089-5.16-7.089-9.837
	c0-0.886,0.11-1.772,0.33-2.64v-0.01c0.01-0.039,0.02-0.078,0.03-0.118c0.02-0.049,0.03-0.098,0.04-0.146l0.05-0.178
	c0.01-0.06,0.03-0.108,0.05-0.157c0.04-0.158,0.089-0.305,0.14-0.453c0.05-0.148,0.24-0.236,0.39-0.177
	c0.16,0.049,0.24,0.226,0.19,0.374c-0.08,0.207-0.141,0.413-0.19,0.62c-0.01,0.038-0.03,0.078-0.04,0.117H11.4
	c-0.01,0.03-0.02,0.069-0.02,0.1c-0.021,0.078-0.03,0.146-0.041,0.226c-0.199,0.817-0.31,1.634-0.31,2.442
	C11.03,13.613,14.01,17.561,18.11,18.447"/>
<polygon fill="#FFFFFF" points="11.451,18.803 10.623,18.803 10.623,20.184 9.907,20.184 9.907,18.803 8.976,18.803 10.209,14.242 
	"/>
<line fill="none" stroke="#FFFFFF" stroke-width="0.6" stroke-linecap="round" x1="10.202" y1="2.656" x2="10.202" y2="3.736"/>
<line fill="none" stroke="#FFFFFF" stroke-width="0.6" stroke-linecap="round" x1="10.202" y1="1.02" x2="10.202" y2="1.739"/>
<line fill="none" stroke="#FFFFFF" stroke-width="0.6" stroke-linecap="round" x1="10.202" y1="-0.184" x2="10.202" y2="0.032"/>
<path fill="#FFFFFF" d="M8.826,5.064c-0.145,0-0.278-0.099-0.315-0.246C8.458,4.606,8.39,4.4,8.309,4.203
	C8.241,4.037,8.319,3.848,8.485,3.778C8.649,3.712,8.842,3.79,8.91,3.956C9.002,4.182,9.081,4.417,9.142,4.66
	C9.185,4.834,9.08,5.011,8.906,5.055C8.878,5.062,8.852,5.064,8.826,5.064"/>
<path fill="#FFFFFF" d="M2.661,3.634c-0.062,0-0.125-0.018-0.18-0.055c-0.149-0.099-0.19-0.302-0.09-0.451
	c0.141-0.21,0.297-0.407,0.467-0.586C2.98,2.411,3.186,2.406,3.316,2.529c0.131,0.124,0.136,0.329,0.012,0.46
	c-0.144,0.153-0.277,0.321-0.397,0.5C2.869,3.583,2.766,3.634,2.661,3.634"/>
<path fill="#FFFFFF" d="M8.015,3.377c-0.096,0-0.192-0.043-0.256-0.125C7.626,3.081,7.48,2.925,7.325,2.788
	C7.191,2.669,7.179,2.463,7.298,2.329c0.12-0.135,0.325-0.146,0.459-0.027c0.184,0.162,0.357,0.349,0.514,0.55
	c0.111,0.142,0.086,0.346-0.056,0.457C8.156,3.355,8.085,3.377,8.015,3.377"/>
<path fill="#FFFFFF" d="M4.039,2.376c-0.118,0-0.232-0.064-0.29-0.177C3.667,2.04,3.729,1.844,3.89,1.761
	c0.229-0.118,0.469-0.21,0.714-0.271C4.781,1.445,4.955,1.549,5,1.722c0.045,0.174-0.06,0.353-0.233,0.396
	C4.567,2.17,4.373,2.244,4.187,2.34C4.14,2.364,4.088,2.376,4.039,2.376"/>
<path fill="#FFFFFF" d="M6.535,2.245c-0.04,0-0.079-0.007-0.118-0.022C6.222,2.146,6.02,2.093,5.818,2.062
	c-0.178-0.025-0.3-0.19-0.274-0.368c0.027-0.179,0.194-0.306,0.369-0.274c0.25,0.038,0.499,0.104,0.74,0.198
	c0.167,0.064,0.25,0.254,0.185,0.421C6.788,2.166,6.665,2.245,6.535,2.245"/>
<path fill="#FFFFFF" d="M11.669,4.854c0.146,0,0.278-0.099,0.315-0.245c0.053-0.213,0.121-0.418,0.201-0.614
	c0.068-0.166-0.011-0.357-0.177-0.425c-0.164-0.068-0.356,0.011-0.424,0.177c-0.093,0.225-0.171,0.461-0.231,0.704
	c-0.045,0.174,0.062,0.35,0.235,0.394C11.615,4.851,11.643,4.854,11.669,4.854"/>
<path fill="#FFFFFF" d="M17.836,3.424c0.062,0,0.125-0.018,0.181-0.055c0.149-0.099,0.19-0.301,0.09-0.451
	c-0.141-0.21-0.297-0.406-0.467-0.586c-0.123-0.131-0.329-0.136-0.46-0.012c-0.13,0.124-0.135,0.329-0.012,0.459
	c0.144,0.153,0.277,0.321,0.397,0.5C17.629,3.373,17.731,3.424,17.836,3.424"/>
<path fill="#FFFFFF" d="M12.48,3.167c0.096,0,0.191-0.043,0.256-0.125c0.133-0.171,0.278-0.326,0.434-0.464
	c0.135-0.119,0.146-0.325,0.027-0.459c-0.121-0.135-0.326-0.145-0.459-0.026c-0.185,0.163-0.357,0.348-0.515,0.55
	c-0.11,0.141-0.086,0.345,0.056,0.456C12.339,3.146,12.41,3.167,12.48,3.167"/>
<path fill="#FFFFFF" d="M16.458,2.166c0.118,0,0.231-0.063,0.29-0.177c0.082-0.159,0.02-0.354-0.141-0.437
	c-0.229-0.118-0.469-0.21-0.715-0.273c-0.178-0.044-0.351,0.062-0.396,0.234c-0.044,0.174,0.061,0.351,0.234,0.395
	c0.197,0.053,0.393,0.126,0.58,0.223C16.357,2.154,16.408,2.166,16.458,2.166"/>
<path fill="#FFFFFF" d="M13.961,2.035c0.039,0,0.078-0.007,0.117-0.021c0.196-0.077,0.397-0.13,0.6-0.161
	c0.178-0.026,0.301-0.191,0.273-0.369c-0.025-0.177-0.193-0.304-0.369-0.272c-0.25,0.037-0.498,0.103-0.74,0.196
	c-0.166,0.066-0.25,0.254-0.185,0.421C13.707,1.957,13.83,2.035,13.961,2.035"/>
</svg>
