<?xml version="1.0" encoding="utf-8"?>
<!-- Generator: Adobe Illustrator 16.0.0, SVG Export Plug-In . SVG Version: 6.00 Build 0)  -->
<!DOCTYPE svg PUBLIC "-//W3C//DTD SVG 1.1//EN" "http://www.w3.org/Graphics/SVG/1.1/DTD/svg11.dtd">
<svg version="1.1" id="Layer_1" xmlns="http://www.w3.org/2000/svg" xmlns:xlink="http://www.w3.org/1999/xlink" x="0px" y="0px"
	 width="20px" height="20px" viewBox="0 0 20 20" enable-background="new 0 0 20 20" xml:space="preserve">
<path display="none" fill="#80AF45" d="M22.904,10.076c0-6.974-5.652-12.626-12.625-12.626c-6.971,0-12.624,5.652-12.624,12.626
	c0,6.973,5.653,12.626,12.624,12.626C17.252,22.702,22.904,17.049,22.904,10.076"/>
<polygon fill="#FFFFFF" points="11.088,6.793 14.955,5.56 14.908,5.364 17.636,4.513 17.596,4.342 14.869,5.193 14.834,5.051 
	10.903,6.274 10.858,6.146 10.197,7.809 11.201,7.112 10.948,6.401 "/>
<path fill="#FFFFFF" d="M19.466,11.947h-0.563v-4.69h0.41v2.545h0.153V11.947z M19.525,12.851h-0.623v-0.674h0.623V12.851z
	 M19.85,9.802V7.257l-0.947-1.345l-0.539-2.828h-0.728v1.428v1.4v0.001l-6.434,1.201L8.676,8.858H5.67V10.8h-5.837v2.752h4.972
	v0.323H1.076v2.457h10.415v-2.457H8.207v-0.323h1.9V9.83l1.055-1.269l6.474-1.766l0.728,6.055l-1.877,2.226l-0.059,0.298h2.006
	l0.879-0.554l0.537-0.782v-1.188h-0.173v-0.674h0.173v-0.229h-0.125V9.802H19.85z"/>
</svg>
