<?xml version="1.0" encoding="utf-8"?>
<!-- Generator: Adobe Illustrator 16.0.0, SVG Export Plug-In . SVG Version: 6.00 Build 0)  -->
<!DOCTYPE svg PUBLIC "-//W3C//DTD SVG 1.1//EN" "http://www.w3.org/Graphics/SVG/1.1/DTD/svg11.dtd">
<svg version="1.1" id="Layer_1" xmlns="http://www.w3.org/2000/svg" xmlns:xlink="http://www.w3.org/1999/xlink" x="0px" y="0px"
	 width="20px" height="20px" viewBox="0 0 20 20" enable-background="new 0 0 20 20" xml:space="preserve">
<path display="none" fill="#80AF45" d="M22.522,9.95c0-6.974-5.653-12.627-12.627-12.627C2.922-2.677-2.732,2.976-2.732,9.95
	c0,6.975,5.654,12.628,12.627,12.628C16.869,22.578,22.522,16.925,22.522,9.95"/>
<path fill="#FFFFFF" d="M4.064,8.362c0-0.271-0.048-0.506-0.142-0.707C3.827,7.455,3.683,7.293,3.49,7.167
	C3.321,7.057,3.128,6.979,2.914,6.933C2.698,6.885,2.425,6.861,2.094,6.861H1.062v3.133h0.88c0.42,0,0.763-0.039,1.027-0.113
	C3.231,9.806,3.446,9.685,3.611,9.52c0.165-0.168,0.281-0.346,0.351-0.531C4.029,8.803,4.064,8.593,4.064,8.362 M5.149,8.335
	c0,0.346-0.061,0.67-0.182,0.966c-0.121,0.297-0.292,0.554-0.509,0.771c-0.27,0.271-0.59,0.475-0.958,0.61
	c-0.369,0.134-0.834,0.203-1.396,0.203H1.062v2.921H0.02V5.964h2.126c0.473,0,0.87,0.041,1.196,0.12
	c0.327,0.079,0.618,0.204,0.869,0.371c0.299,0.2,0.53,0.45,0.693,0.748C5.068,7.501,5.149,7.878,5.149,8.335"/>
<path fill="#FFFFFF" d="M10.574,8.172c0-0.225-0.04-0.424-0.118-0.598c-0.079-0.173-0.21-0.321-0.392-0.44
	C9.912,7.031,9.733,6.962,9.526,6.921C9.318,6.881,9.074,6.86,8.793,6.86H7.566v2.96h1.054c0.329,0,0.617-0.028,0.863-0.086
	c0.245-0.058,0.455-0.167,0.626-0.325c0.157-0.147,0.275-0.317,0.349-0.509C10.537,8.71,10.574,8.467,10.574,8.172 M13.013,13.808
	h-1.354l-2.623-3.118H7.566v3.118H6.523V5.965H8.72c0.474,0,0.869,0.031,1.185,0.093c0.317,0.061,0.6,0.172,0.853,0.329
	c0.285,0.178,0.507,0.404,0.667,0.676c0.159,0.272,0.239,0.618,0.239,1.036c0,0.565-0.143,1.038-0.427,1.419
	c-0.285,0.381-0.675,0.668-1.173,0.861L13.013,13.808z"/>
<path fill="#FFFFFF" d="M18.854,11.437c0-0.315-0.048-0.565-0.142-0.752c-0.096-0.186-0.267-0.344-0.517-0.475
	c-0.169-0.087-0.373-0.145-0.614-0.17c-0.24-0.026-0.533-0.04-0.877-0.04h-1.638v2.917h1.38c0.458,0,0.831-0.023,1.121-0.072
	c0.293-0.047,0.53-0.134,0.719-0.26c0.194-0.136,0.339-0.293,0.43-0.468S18.854,11.716,18.854,11.437 M18.186,7.861
	c0-0.19-0.034-0.349-0.097-0.48c-0.062-0.128-0.164-0.234-0.305-0.315c-0.165-0.094-0.365-0.154-0.601-0.176
	c-0.236-0.022-0.527-0.034-0.873-0.034h-1.244V9.12h1.349c0.327,0,0.586-0.018,0.779-0.051c0.192-0.033,0.371-0.103,0.537-0.207
	c0.165-0.106,0.281-0.242,0.352-0.408C18.15,8.287,18.186,8.089,18.186,7.861 M19.938,11.396c0,0.389-0.074,0.733-0.22,1.031
	c-0.148,0.3-0.348,0.545-0.598,0.739c-0.294,0.229-0.618,0.396-0.971,0.495c-0.353,0.097-0.802,0.147-1.347,0.147h-2.78V5.965h2.321
	c0.573,0,1.002,0.021,1.287,0.062c0.284,0.042,0.556,0.131,0.816,0.264c0.289,0.152,0.497,0.345,0.626,0.583
	c0.13,0.236,0.196,0.52,0.196,0.851c0,0.372-0.095,0.689-0.285,0.949c-0.19,0.262-0.442,0.473-0.76,0.63v0.043
	c0.531,0.108,0.95,0.342,1.256,0.698C19.786,10.401,19.938,10.851,19.938,11.396"/>
</svg>
