<?xml version="1.0" encoding="utf-8"?>
<!-- Generator: Adobe Illustrator 16.0.0, SVG Export Plug-In . SVG Version: 6.00 Build 0)  -->
<!DOCTYPE svg PUBLIC "-//W3C//DTD SVG 1.1//EN" "http://www.w3.org/Graphics/SVG/1.1/DTD/svg11.dtd">
<svg version="1.1" xmlns="http://www.w3.org/2000/svg" xmlns:xlink="http://www.w3.org/1999/xlink" x="0px" y="0px" width="20px"
	 height="20px" viewBox="0 0 20 20" enable-background="new 0 0 20 20" xml:space="preserve">
<g id="Layer_2" display="none">
	<rect x="-4" y="1" display="inline" fill="#FF1D25" width="26" height="19"/>
</g>
<g id="Layer_1">
	<path fill="#67308E" d="M12.284,13.938c-0.558,0.355-1.171,0.657-2.022,0.719c-0.041,0.035-0.145,0.006-0.21,0.016H9.917
		c-0.065-0.01-0.169,0.02-0.21-0.016c-0.473-0.026-0.84-0.159-1.229-0.27c-1.289-0.634-2.228-1.619-2.397-3.371
		c-0.035-0.041-0.006-0.146-0.015-0.21v-0.135c0.009-0.065-0.02-0.17,0.015-0.21c-0.009-0.068,0.026-0.094,0.015-0.165H0.679
		c0.012,5.159,4.176,9.337,9.312,9.337c3.515,0,6.574-1.957,8.159-4.845c-1.502-0.911-2.968-1.858-4.472-2.769
		C13.414,12.859,12.897,13.446,12.284,13.938"/>
	<path fill="#A3D4E8" d="M10.621,4.887c0.015,0.151,0.144,0.346,0.225,0.509c0.231,0.468,0.503,0.892,0.795,1.259
		c0.018,0.023,0.035,0.07,0.074,0.06c0.548-1.716,1.086-3.441,1.611-5.18c-0.672-0.259-1.381-0.442-2.116-0.539
		c-0.147,0.927-0.294,1.953-0.439,2.901C10.727,4.187,10.595,4.612,10.621,4.887"/>
	<path fill="#A3D4E8" d="M13.078,8.303c0.031-0.014,0.061-0.03,0.091-0.045c0.078-0.091,0.163-0.176,0.255-0.255
		c0.05-0.02,0.062-0.077,0.104-0.104c0.083-0.096,0.174-0.186,0.27-0.27c0.044-0.021,0.062-0.069,0.104-0.09
		c0.09-0.102,0.184-0.196,0.285-0.285c0.045-0.021,0.061-0.069,0.105-0.09c0.088-0.101,0.184-0.196,0.284-0.285
		c0.039-0.015,0.051-0.059,0.09-0.075c0.089-0.102,0.184-0.196,0.285-0.285c0.039-0.016,0.05-0.059,0.089-0.075
		c0.094-0.106,0.194-0.206,0.301-0.3c0.039-0.015,0.051-0.059,0.09-0.075c0.088-0.102,0.184-0.196,0.284-0.285
		c0.04-0.016,0.051-0.059,0.09-0.075c0.094-0.106,0.194-0.206,0.3-0.3c0.04-0.016,0.051-0.06,0.09-0.075
		c0.089-0.101,0.184-0.196,0.285-0.285c0.166-0.143,0.302-0.318,0.479-0.45c0.076-0.087,0.157-0.169,0.243-0.247
		c-0.524-0.644-1.133-1.217-1.808-1.701c-1.135,1.484-2.289,2.951-3.426,4.435C12.275,7.558,12.72,7.888,13.078,8.303"/>
	<path fill="#46B8E6" d="M2.819,4.305c0.069,0.088,0.193,0.155,0.25,0.252c0.039,0.016,0.05,0.06,0.09,0.075
		C3.28,4.74,3.395,4.855,3.503,4.977C3.62,5.08,3.729,5.19,3.833,5.306c0.039,0.026,0.07,0.059,0.105,0.09
		c0.116,0.104,0.226,0.213,0.33,0.33C4.389,5.834,4.504,5.949,4.612,6.07c0.04,0.016,0.051,0.06,0.09,0.075
		c0.106,0.094,0.206,0.194,0.3,0.3c0.126,0.114,0.246,0.234,0.36,0.36c0.04,0.016,0.05,0.06,0.09,0.075
		c0.106,0.093,0.206,0.193,0.3,0.299c0.126,0.114,0.246,0.233,0.359,0.359C6.142,7.543,6.14,7.58,6.171,7.583
		c0.143,0.132,0.285,0.264,0.404,0.419c0.114,0.092,0.201,0.209,0.315,0.3C7.104,8.117,7.256,7.87,7.489,7.704
		c0.112-0.132,0.247-0.243,0.36-0.375C7.896,7.246,7.97,7.19,8.014,7.104C6.839,5.649,5.736,4.123,4.547,2.682
		C3.905,3.147,3.324,3.693,2.819,4.305"/>
	<path fill="#E7F0F3" d="M13.813,9.951c1.79-0.481,3.525-1.017,5.312-1.502c-0.16-0.816-0.427-1.595-0.783-2.319
		c-1.736,0.753-3.457,1.521-5.188,2.278C13.426,8.87,13.703,9.327,13.813,9.951"/>
	<path fill="#2CA9E1" d="M6.755,8.482c-1.718-0.76-3.422-1.534-5.148-2.286c-0.338,0.7-0.592,1.45-0.749,2.235
		C2.62,8.938,4.365,9.46,6.141,9.951C6.259,9.385,6.526,8.889,6.755,8.482"/>
	<path fill="#E7F0F3" d="M13.873,10.251c0.064,0.482,0.01,1.003-0.075,1.423c1.716,0.397,3.425,0.802,5.142,1.197
		c0.236-0.824,0.363-1.695,0.363-2.597c0-0.022,0-0.046-0.001-0.068h-5.414C13.871,10.208,13.872,10.229,13.873,10.251"/>
	<path fill="#46B8E6" d="M9.243,3.897c-0.023-0.064-0.041-0.206-0.06-0.33C9.052,2.725,8.898,1.794,8.767,0.997
		C7.972,1.102,7.209,1.308,6.49,1.601C7.028,3.4,7.56,5.206,8.134,6.969c0.448-0.581,0.871-1.187,1.184-1.903
		C9.492,4.74,9.273,4.257,9.243,3.897"/>
</g>
</svg>
