<?xml version="1.0" encoding="utf-8"?>
<!-- Generator: Adobe Illustrator 16.0.0, SVG Export Plug-In . SVG Version: 6.00 Build 0)  -->
<!DOCTYPE svg PUBLIC "-//W3C//DTD SVG 1.1//EN" "http://www.w3.org/Graphics/SVG/1.1/DTD/svg11.dtd">
<svg version="1.1" id="Layer_1" xmlns="http://www.w3.org/2000/svg" xmlns:xlink="http://www.w3.org/1999/xlink" x="0px" y="0px"
	 width="20px" height="20px" viewBox="0 0 20 20" enable-background="new 0 0 20 20" xml:space="preserve">
<path display="none" fill="#F9AF19" d="M22.959,10.333c0-6.972-5.652-12.625-12.625-12.625c-6.973,0-12.625,5.653-12.625,12.625
	c0,6.973,5.652,12.625,12.625,12.625C17.307,22.957,22.959,17.306,22.959,10.333"/>
<path fill="#FFFFFF" d="M6.074,19.191c0.037-0.05,0.072-0.101,0.105-0.152l0.001,0.003c0,0,0.449-0.733,1.241-0.944l-0.002-0.006
	l4.213-1.098v-0.001l3.846-1c0.671-0.161,1.304,0.114,1.478,0.201c0.389,0.235,0.869,0.318,1.344,0.195
	c0.006,0,0.01-0.004,0.016-0.004c0.029-0.007,0.058-0.012,0.088-0.019c0.946-0.248,1.514-1.215,1.267-2.159
	c-0.001-0.008-0.003-0.013-0.004-0.021l-0.229,0.023l-0.621,0.74c-0.304,0.336-0.808,0.376-1.152,0.099
	c-0.135-0.107-0.229-0.255-0.273-0.421c-0.064-0.249-0.04-0.508,0.113-0.715l0.641-0.846l-0.02-0.179
	c-0.201-0.021-0.408-0.004-0.615,0.05c-0.306,0.079-0.573,0.235-0.784,0.442c-0.139,0.118-0.258,0.257-0.354,0.411V13.79
	c0,0-0.447,0.732-1.24,0.946v0.006l-5.492,1.43L7.073,16.84c-0.671,0.16-1.304-0.115-1.479-0.2c-0.358-0.219-0.794-0.306-1.232-0.22
	c-0.061,0.01-0.121,0.022-0.181,0.036c-0.946,0.246-1.514,1.215-1.267,2.161c0.002,0.006,0.003,0.013,0.005,0.018l0.229-0.021
	l0.621-0.742c0.303-0.333,0.807-0.373,1.151-0.098c0.136,0.109,0.23,0.256,0.274,0.423c0.064,0.247,0.042,0.508-0.112,0.714
	l-0.641,0.846l0.02,0.178c0.2,0.021,0.408,0.005,0.614-0.049C5.496,19.775,5.841,19.521,6.074,19.191"/>
<polygon fill="#FFFFFF" points="7.08,11.769 8.062,10.934 11.651,9.922 11.651,9.384 11.851,9.359 12.067,9.455 12.089,10.354 
	12.863,11.547 12.949,14.083 9.252,15.213 7.19,14.28 "/>
<polygon fill="#FFFFFF" points="6.375,2.708 7.357,1.873 10.947,0.861 10.947,0.323 11.146,0.299 11.363,0.395 11.385,1.293 
	12.16,2.486 12.246,5.021 8.548,6.153 6.485,5.219 "/>
<polygon fill="#FFFFFF" points="12.949,6.371 13.931,5.537 17.521,4.523 17.521,3.986 17.72,3.961 17.938,4.058 17.959,4.956 
	18.733,6.149 18.818,8.685 15.121,9.816 13.059,8.882 "/>
<polygon fill="#FFFFFF" points="0.041,8.666 1.022,7.832 4.611,6.819 4.611,6.282 4.812,6.258 5.028,6.354 5.049,7.251 5.824,8.444 
	5.91,10.98 2.212,12.11 0.15,11.178 "/>
</svg>
