<?xml version="1.0" encoding="utf-8"?>
<!-- Generator: Adobe Illustrator 16.0.0, SVG Export Plug-In . SVG Version: 6.00 Build 0)  -->
<!DOCTYPE svg PUBLIC "-//W3C//DTD SVG 1.1//EN" "http://www.w3.org/Graphics/SVG/1.1/DTD/svg11.dtd">
<svg version="1.1" id="Layer_1" xmlns="http://www.w3.org/2000/svg" xmlns:xlink="http://www.w3.org/1999/xlink" x="0px" y="0px"
	 width="30px" height="30px" viewBox="0 0 30 30" enable-background="new 0 0 30 30" xml:space="preserve">
<path fill-rule="evenodd" clip-rule="evenodd" fill="#67308E" d="M5.515,6.197C6.171,6.146,6.669,6.314,7.05,6.565
	c0.504,0.333,0.898,1.03,0.9,1.862c0.002,1.261-0.889,2.043-2.087,2.169c-0.113,0.011-0.274,0.01-0.389,0
	c-0.795-0.076-1.44-0.479-1.74-1.003c-0.356-0.624-0.4-1.646,0-2.354C3.988,6.792,4.675,6.263,5.515,6.197"/>
<path fill-rule="evenodd" clip-rule="evenodd" fill="#67308E" d="M15.44,10.926c-0.332,0.016-0.371-0.255-0.51-0.431
	c-0.165-0.209-0.474-0.411-0.738-0.616c-0.725-0.557-2.136-1.655-3.377-1.062c-1.07,0.513-1.877,2.116-1.635,3.705
	c-0.978,0.388-1.958,0.771-2.537,1.553c-0.603-0.761-1.112-1.642-0.983-3.026c1.483-0.188,2.331-1.01,2.477-2.54V8.306
	c0-0.543-0.182-0.897-0.327-1.291c2.354-0.825,5.013,0.003,6.344,1.248c0.321,0.301,0.666,0.708,0.92,1.125
	C15.327,9.806,15.605,10.336,15.44,10.926"/>
<path fill-rule="evenodd" clip-rule="evenodd" fill="#7D418F" d="M11.204,12.807c0.096-0.034,0.334-0.034,0.43,0H11.204z"/>
<path fill-rule="evenodd" clip-rule="evenodd" fill="#E4DD25" d="M25.938,18.332c0.614-0.033,1.27,0.117,1.617,0.41
	c0.515,0.433,0.828,1.4,0.634,2.394c-0.084,0.434-0.332,0.874-0.594,1.146c-0.731,0.763-2.133,0.677-2.905,0.062
	c-0.458-0.365-0.854-0.931-0.86-1.597c-0.009-1.093,0.469-1.872,1.249-2.23C25.301,18.415,25.611,18.35,25.938,18.332"/>
<path fill-rule="evenodd" clip-rule="evenodd" fill="#7D418F" d="M10.16,22.691c-0.035,0.034-0.21,0.034-0.245,0H10.16z"/>
<path fill-rule="evenodd" clip-rule="evenodd" fill="#2CA9E1" d="M25.938,6.238c1.407-0.049,2.324,0.833,2.333,2.128
	c0.007,0.829-0.359,1.495-0.859,1.883c-0.368,0.285-0.78,0.502-1.351,0.512c-1.604,0.024-2.737-1.859-1.965-3.438
	C24.361,6.783,25.086,6.268,25.938,6.238"/>
<path fill-rule="evenodd" clip-rule="evenodd" fill="#2CA9E1" d="M23.831,7.2c-0.81,1.803,0.317,3.79,2.271,3.786
	c-0.376,1.698-1.091,3.183-2.354,4.072c-0.576,0.406-1.36,0.811-2.21,1.002c-0.814,0.185-2.025,0.216-2.66-0.286
	c0.662-0.304,1.406-0.521,2.087-0.818c0.646-0.283,1.338-0.638,1.719-1.167c0.553-0.766,0.479-1.979,0.021-2.742
	c-0.455-0.758-1.113-1.263-1.903-1.637c0.248-0.812,0.245-2.027,0.144-3.008C22.092,6.211,23.247,6.455,23.831,7.2"/>
<path fill-rule="evenodd" clip-rule="evenodd" fill="#F9AF19" d="M15.788,0.16c0.808-0.055,1.542,0.311,1.862,0.765
	c0.81,1.143,0.39,3.002-0.88,3.58c-0.616,0.28-1.593,0.203-2.205-0.188c-0.454-0.29-0.835-0.887-0.885-1.622
	c-0.046-0.677,0.269-1.431,0.511-1.75C14.545,0.479,15.067,0.209,15.788,0.16"/>
<path fill-rule="evenodd" clip-rule="evenodd" fill="#F9AF19" d="M19.799,8.284c-0.108,1.951-0.642,3.655-2.189,4.236
	c0.4-1.38,1.394-3.979,0.041-5.219c-0.844-0.773-2.937-0.83-3.847,0.021c-0.857-0.562-1.469-1.37-2.518-1.739
	c0.419-1.021,1.179-1.699,2.189-2.128c0.516,0.737,1.281,1.472,2.415,1.474c0.616,0,1.254-0.269,1.596-0.655
	c0.111-0.125,0.232-0.493,0.43-0.512c0.296-0.028,0.588,0.541,0.737,0.778c0.591,0.934,1.173,2.1,1.146,3.479V8.284z"/>
<path fill-rule="evenodd" clip-rule="evenodd" fill="#C14127" d="M20.168,23.184c-0.029,0.461-0.212,0.676-0.43,1.146
	c-0.361,0.447-0.726,0.726-1.106,0.921c-0.056,0.029-0.205,0.086-0.205,0.06c-0.109,0.119-0.229,0.093-0.367,0.165
	c-0.173-0.5-0.752-0.91-1.166-1.065c-0.129-0.047-0.341-0.04-0.45-0.143c-0.093,0.05-0.242-0.043-0.431-0.04h-0.245
	c-0.169,0-0.337,0.086-0.41,0.04c-0.596,0.195-1.345,0.44-1.616,1.208c-1.232-0.884-1.755-2.229-2.003-3.602
	c-0.043-0.223-0.103-0.44-0.103-0.735v-0.226c-0.023-0.186-0.023-0.348,0-0.533v-0.205c0.146-1.417,0.404-2.143,1.351-3.172
	c0.026,0.01-0.003,0.02,0,0.043c0.142-0.13,0.285-0.299,0.447-0.352c-0.1,1.149-0.477,1.895-0.388,3.441
	c0.083,1.406,0.867,2.287,2.212,2.33h0.305c0.58-0.046,0.904-0.099,1.291-0.327c0.014-0.007,0.02,0.033,0.02,0.043
	c0.275-0.186,0.609-0.341,0.818-0.533C18.539,22.319,19.357,23.031,20.168,23.184"/>
<path fill-rule="evenodd" clip-rule="evenodd" fill="#E4DD25" d="M16.156,18.517c0.118-0.032,0.206,0.09,0.287,0.144
	c0.652,0.435,1.292,1.027,1.984,1.452c0.479,0.294,1.103,0.522,1.863,0.472c1.553-0.104,2.428-2.083,2.005-3.827
	c0.887-0.519,1.881-0.93,2.538-1.679c0.772,0.582,1.226,1.581,1.125,2.968c-1.935-0.035-2.891,2.361-1.903,4.011
	c-1.165,0.644-3.299,0.666-4.584,0.144C17.844,21.538,16.421,20.486,16.156,18.517"/>
<path fill-rule="evenodd" clip-rule="evenodd" fill="#80AF45" d="M9.915,22.691c-0.926,0.011-1.711-0.295-2.189-0.798
	c0.714-1.902-0.225-3.948-2.272-3.848c0.345-1.951,1.565-3.408,3.029-4.4c0.693-0.469,1.689-0.763,2.722-0.839h0.43
	c0.538,0.021,0.926,0.193,1.105,0.573c-0.845,0.202-1.581,0.512-2.312,0.88c-0.905,0.455-1.893,1.006-1.944,2.271
	c-0.062,1.531,1.187,2.596,2.292,3.029c-0.254,0.843-0.274,2.086-0.164,3.11c-0.125,0.022-0.345,0.045-0.451,0.021H9.915z"/>
<path fill-rule="evenodd" clip-rule="evenodd" fill="#80AF45" d="M5.904,18.332c0.991,0.062,1.631,0.755,1.821,1.597
	c0.209,0.928-0.079,1.955-0.716,2.476c-0.756,0.618-2.21,0.563-2.906-0.122c-0.429-0.423-0.715-1.123-0.655-1.924
	c0.051-0.677,0.374-1.249,0.777-1.575c0.345-0.28,0.725-0.391,1.351-0.451H5.904z"/>
<path fill-rule="evenodd" clip-rule="evenodd" fill="#C14127" d="M16.136,24.41c0.635,0.027,0.999,0.247,1.433,0.695
	c0.336,0.533,0.573,1.219,0.41,2.067c-0.125,0.648-0.515,1.356-1.29,1.658c-0.615,0.294-1.74,0.08-2.189-0.308
	c0.001-0.062-0.043-0.08-0.062-0.123c-0.086-0.004-0.172-0.089-0.144-0.143c-0.355-0.359-0.538-0.803-0.593-1.33
	c-0.157-1.506,0.916-2.509,2.148-2.518H16.136z"/>
</svg>
