<?xml version="1.0" encoding="utf-8"?>
<!-- Generator: Adobe Illustrator 16.0.0, SVG Export Plug-In . SVG Version: 6.00 Build 0)  -->
<!DOCTYPE svg PUBLIC "-//W3C//DTD SVG 1.1//EN" "http://www.w3.org/Graphics/SVG/1.1/DTD/svg11.dtd">
<svg version="1.1" id="Layer_1" xmlns="http://www.w3.org/2000/svg" xmlns:xlink="http://www.w3.org/1999/xlink" x="0px" y="0px"
	 width="14.871px" height="16.206px" viewBox="0 0 14.871 16.206" enable-background="new 0 0 14.871 16.206" xml:space="preserve">
<path display="none" fill="#2CA9E1" d="M20.062,7.15c0-6.973-5.653-12.627-12.627-12.627C0.462-5.477-5.192,0.177-5.192,7.15
	c0,6.974,5.654,12.627,12.627,12.627C14.409,19.777,20.062,14.124,20.062,7.15"/>
<polygon fill="#FFFFFF" points="1.949,7.216 1.949,0.851 0,0.851 0,0 4.69,0 4.69,0.851 2.732,0.851 2.732,7.216 "/>
<path fill="#FFFFFF" d="M5.198,7.216h0.724V1.988H5.198V7.216z M5.198,1.019h0.724V0H5.198V1.019z"/>
<path fill="#FFFFFF" d="M8.648,6.423l0.099,0.783c-0.2,0.052-0.38,0.078-0.542,0.078c-0.253,0-0.456-0.05-0.61-0.15
	c-0.154-0.1-0.26-0.237-0.319-0.411C7.22,6.549,7.191,6.204,7.191,5.686V2.676H6.66V1.988h0.532V0.693l0.723-0.532v1.827h0.734
	v0.688H7.915v3.057c0,0.283,0.022,0.465,0.064,0.547c0.063,0.118,0.18,0.177,0.35,0.177C8.411,6.458,8.518,6.446,8.648,6.423"/>
<rect x="9.31" y="0" fill="#FFFFFF" width="0.724" height="7.216"/>
<path fill="#FFFFFF" d="M11.711,4.101h2.394c-0.035-0.454-0.131-0.792-0.291-1.014c-0.234-0.326-0.531-0.488-0.893-0.488
	c-0.324,0-0.602,0.135-0.831,0.407C11.86,3.274,11.733,3.64,11.711,4.101 M14.099,5.532l0.748,0.114
	c-0.126,0.557-0.351,0.978-0.678,1.261c-0.326,0.286-0.73,0.427-1.213,0.427c-0.607,0-1.1-0.23-1.475-0.692
	c-0.375-0.46-0.563-1.127-0.563-1.996c0-0.903,0.188-1.591,0.569-2.065c0.377-0.474,0.857-0.711,1.439-0.711
	c0.555,0,1.018,0.232,1.389,0.699c0.371,0.465,0.556,1.14,0.556,2.023l-0.005,0.237h-3.199c0.027,0.587,0.165,1.03,0.408,1.328
	c0.242,0.299,0.537,0.448,0.886,0.448C13.505,6.605,13.885,6.247,14.099,5.532"/>
<path fill="#FFFFFF" d="M5.537,14.193l0.763-0.08c0.059,0.461,0.192,0.803,0.402,1.027c0.208,0.225,0.449,0.338,0.725,0.338
	c0.345,0,0.642-0.16,0.891-0.476c0.249-0.317,0.375-0.751,0.375-1.299c0-0.517-0.121-0.917-0.363-1.202
	c-0.24-0.283-0.544-0.426-0.907-0.426c-0.221,0-0.426,0.061-0.619,0.186c-0.191,0.123-0.343,0.295-0.455,0.516l-0.685-0.109
	L6.241,8.96H9.18v0.847H6.817l-0.316,1.941c0.351-0.303,0.723-0.455,1.117-0.455c0.496,0,0.925,0.212,1.292,0.634
	c0.365,0.422,0.549,0.991,0.549,1.707c0,0.707-0.184,1.312-0.549,1.815c-0.367,0.505-0.857,0.757-1.475,0.757
	c-0.512,0-0.945-0.179-1.296-0.533C5.787,15.316,5.585,14.822,5.537,14.193"/>
</svg>
