<?xml version="1.0" encoding="utf-8"?>
<!-- Generator: Adobe Illustrator 16.0.0, SVG Export Plug-In . SVG Version: 6.00 Build 0)  -->
<!DOCTYPE svg PUBLIC "-//W3C//DTD SVG 1.1//EN" "http://www.w3.org/Graphics/SVG/1.1/DTD/svg11.dtd">
<svg version="1.1" id="Layer_1" xmlns="http://www.w3.org/2000/svg" xmlns:xlink="http://www.w3.org/1999/xlink" x="0px" y="0px"
	 width="20px" height="20px" viewBox="0 0 20 20" enable-background="new 0 0 20 20" xml:space="preserve">
<path display="none" fill="#80AF45" d="M22.547,9.915c0-6.973-5.652-12.625-12.625-12.625S-2.703,2.942-2.703,9.915
	S2.95,22.54,9.922,22.54S22.547,16.888,22.547,9.915"/>
<path fill="#FFFFFF" d="M14.146,7.512c0-2.959-1.892-5.356-4.226-5.356c-2.333,0-4.224,2.397-4.224,5.356s1.891,5.357,4.224,5.357
	C12.255,12.869,14.146,10.471,14.146,7.512"/>
<rect x="9.36" y="9.785" fill="#FFFFFF" width="1.124" height="6.027"/>
<path fill="none" stroke="#FFFFFF" stroke-width="0.762" stroke-miterlimit="10" d="M-2.703,9.896c0,0,1.508-0.02,3.352-0.045
	c1.844-0.023,3.968,1.411,4.722,3.188c0,0,1.281,3.023,4.551,3.023c3.269,0,4.55-3.023,4.55-3.023
	c0.754-1.777,2.878-3.212,4.723-3.188c1.844,0.025,3.352,0.045,3.352,0.045"/>
<path fill="#FFFFFF" d="M2.926,7.111c0.449,0.004,1.002-0.145,1.375-0.69c0.63-0.923,0.106-1.693-0.053-1.96
	c-0.16-0.267-1.322-2.306-1.322-2.306S1.765,4.194,1.604,4.461c-0.159,0.267-0.683,1.037-0.053,1.96
	C1.924,6.967,2.476,7.115,2.926,7.111"/>
</svg>
