<?xml version="1.0" encoding="utf-8"?>
<!-- Generator: Adobe Illustrator 16.0.0, SVG Export Plug-In . SVG Version: 6.00 Build 0)  -->
<!DOCTYPE svg PUBLIC "-//W3C//DTD SVG 1.1//EN" "http://www.w3.org/Graphics/SVG/1.1/DTD/svg11.dtd">
<svg version="1.1" id="Layer_1" xmlns="http://www.w3.org/2000/svg" xmlns:xlink="http://www.w3.org/1999/xlink" x="0px" y="0px"
	 width="20px" height="20px" viewBox="0 0 20 20" enable-background="new 0 0 20 20" xml:space="preserve">
<path display="none" fill="#80AF45" d="M22.932,9.803c0-6.973-5.639-12.625-12.595-12.625C3.381-2.822-2.258,2.83-2.258,9.803
	c0,6.972,5.639,12.625,12.594,12.625C17.293,22.428,22.932,16.774,22.932,9.803"/>
<path fill="#FFFFFF" d="M17.617,8.468c0,0-3.348,2.022-3.383,8.37h-1.619C12.615,16.838,12.398,11.97,17.617,8.468"/>
<path fill="#FFFFFF" d="M13.033,16.837h-2.399c0,0,1.583-8.87-4.536-12.463C6.098,4.374,14.019,7.33,13.033,16.837"/>
<path fill="#FFFFFF" d="M10.634,16.837H8.186c0,0,2.448-8.37,11.016-11.418C19.202,5.419,11.93,9.06,10.634,16.837"/>
<path fill="#FFFFFF" d="M9.626,16.837H7.79c0,0-0.396-6.23-4.501-11.689C3.289,5.147,9.698,10.651,9.626,16.837"/>
<path fill="#FFFFFF" d="M8.186,16.837H6.451c0,0-1.028-5.003-4.625-8.551C1.826,8.286,7.158,11.379,8.186,16.837"/>
<path fill="none" stroke="#FFFFFF" stroke-width="0.762" stroke-linecap="round" stroke-linejoin="round" stroke-miterlimit="10" d="
	M-2.319,9.897c0,0.925,0.703,1.672,1.57,1.672c0.867,0,1.569-0.747,1.569-1.672c0,0.925,0.702,1.672,1.57,1.672
	c0.866,0,1.568-0.747,1.568-1.672c0,0.925,0.703,1.672,1.57,1.672c0.866,0,1.569-0.747,1.569-1.672c0,0.925,0.702,1.672,1.569,1.672
	c0.867,0,1.57-0.747,1.57-1.672V9.729c0,0.923,0.702,1.672,1.569,1.672c0.866,0,1.569-0.749,1.569-1.672
	c0,0.923,0.702,1.672,1.567,1.672c0.868,0,1.57-0.749,1.57-1.672V9.642c0,0.923,0.702,1.671,1.568,1.671
	c0.867,0,1.57-0.748,1.57-1.671c0,0.923,0.703,1.671,1.569,1.671c0.867,0,1.569-0.748,1.569-1.671"/>
<line fill="none" stroke="#FFFFFF" stroke-width="0.762" stroke-miterlimit="10" x1="-1.216" y1="16.837" x2="21.888" y2="16.837"/>
<path fill="#FFFFFF" d="M13.118,6.852c0.448,0.005,1-0.144,1.372-0.689c0.628-0.923,0.105-1.693-0.053-1.96
	c-0.16-0.268-1.319-2.306-1.319-2.306s-1.159,2.038-1.317,2.306c-0.16,0.267-0.683,1.037-0.055,1.96
	C12.118,6.708,12.669,6.856,13.118,6.852"/>
</svg>
