<?xml version="1.0" encoding="utf-8"?>
<!-- Generator: Adobe Illustrator 16.0.0, SVG Export Plug-In . SVG Version: 6.00 Build 0)  -->
<!DOCTYPE svg PUBLIC "-//W3C//DTD SVG 1.1//EN" "http://www.w3.org/Graphics/SVG/1.1/DTD/svg11.dtd">
<svg version="1.1" id="Layer_1" xmlns="http://www.w3.org/2000/svg" xmlns:xlink="http://www.w3.org/1999/xlink" x="0px" y="0px"
	 width="20px" height="20px" viewBox="0 0 20 20" enable-background="new 0 0 20 20" xml:space="preserve">
<path display="none" fill="#F9AF19" d="M22.734,10.205c0-6.972-5.653-12.624-12.625-12.624c-6.973,0-12.625,5.652-12.625,12.624
	c0,6.973,5.652,12.625,12.625,12.625C17.081,22.83,22.734,17.178,22.734,10.205"/>
<path fill="#FFFFFF" d="M10.109,13.908c1.22,0.01,2.72-0.391,3.73-1.871c1.708-2.504,0.288-4.596-0.144-5.32
	c-0.434-0.721-3.587-6.256-3.587-6.256s-3.15,5.535-3.585,6.256c-0.433,0.724-1.854,2.816-0.145,5.32
	C7.392,13.518,8.889,13.918,10.109,13.908"/>
<path fill="#FFFFFF" d="M4.988,17.564v1.014h0.584c0.256,0,0.42-0.015,0.493-0.041c0.071-0.026,0.133-0.08,0.183-0.158
	c0.049-0.077,0.074-0.178,0.074-0.297c0-0.125-0.027-0.228-0.08-0.307c-0.052-0.08-0.122-0.135-0.21-0.166
	c-0.087-0.029-0.267-0.045-0.536-0.045H4.988z M4.988,16.055v0.878h0.415c0.248,0,0.401-0.004,0.46-0.013
	c0.107-0.018,0.191-0.062,0.251-0.137c0.061-0.072,0.092-0.172,0.092-0.299c0-0.113-0.025-0.203-0.075-0.273
	c-0.049-0.07-0.108-0.113-0.179-0.131c-0.07-0.017-0.271-0.025-0.603-0.025H4.988z M4.361,15.423h1.247
	c0.341,0,0.58,0.03,0.718,0.093s0.255,0.172,0.35,0.329c0.097,0.157,0.144,0.335,0.144,0.534c0,0.183-0.041,0.348-0.123,0.494
	c-0.081,0.149-0.188,0.258-0.316,0.328c0.185,0.066,0.328,0.178,0.434,0.338c0.104,0.158,0.155,0.352,0.155,0.58
	c0,0.276-0.065,0.51-0.198,0.701c-0.134,0.19-0.29,0.309-0.472,0.354C6.172,19.203,5.88,19.22,5.42,19.22H4.361V15.423z"/>
<polygon fill="#FFFFFF" points="7.493,19.22 7.493,15.423 8.433,15.423 8.999,18.015 9.561,15.423 10.505,15.423 10.505,19.22 
	9.92,19.22 9.92,16.229 9.299,19.22 8.693,19.22 8.079,16.229 8.079,19.22 "/>
<path fill="#FFFFFF" d="M11.751,16.064v1.08h0.347c0.234,0,0.394-0.016,0.477-0.05c0.085-0.032,0.152-0.092,0.208-0.176
	c0.053-0.087,0.08-0.192,0.08-0.315c0-0.127-0.028-0.234-0.083-0.32c-0.056-0.086-0.124-0.145-0.205-0.174
	c-0.082-0.029-0.254-0.045-0.518-0.045H11.751z M11.124,19.22v-3.797h1.01c0.377,0,0.623,0.019,0.738,0.054
	c0.185,0.059,0.338,0.184,0.458,0.377c0.119,0.191,0.179,0.438,0.179,0.739c0,0.274-0.051,0.505-0.153,0.69
	c-0.105,0.186-0.234,0.316-0.39,0.392s-0.424,0.112-0.803,0.112h-0.412v1.433H11.124z"/>
<path fill="#FFFFFF" d="M13.812,18.438l0.6-0.111c0.051,0.289,0.211,0.433,0.48,0.433c0.143,0,0.251-0.027,0.322-0.082
	c0.07-0.056,0.105-0.128,0.105-0.216c0-0.062-0.016-0.108-0.047-0.144c-0.033-0.034-0.098-0.063-0.195-0.09
	c-0.49-0.13-0.802-0.254-0.935-0.372c-0.165-0.146-0.248-0.349-0.248-0.605c0-0.256,0.081-0.461,0.243-0.614
	c0.163-0.154,0.399-0.231,0.707-0.231c0.296,0,0.521,0.059,0.674,0.172c0.153,0.115,0.262,0.301,0.324,0.556l-0.562,0.127
	c-0.051-0.222-0.191-0.331-0.426-0.331c-0.146,0-0.25,0.021-0.312,0.062c-0.062,0.043-0.094,0.098-0.094,0.166
	c0,0.061,0.029,0.11,0.086,0.15c0.058,0.042,0.234,0.104,0.53,0.188c0.334,0.096,0.56,0.209,0.679,0.342
	c0.118,0.133,0.177,0.311,0.177,0.531c0,0.266-0.09,0.484-0.273,0.658c-0.182,0.174-0.433,0.26-0.755,0.26
	c-0.292,0-0.53-0.072-0.714-0.217C13.992,18.924,13.872,18.713,13.812,18.438"/>
</svg>
