<?xml version="1.0" encoding="utf-8"?>
<!-- Generator: Adobe Illustrator 16.0.0, SVG Export Plug-In . SVG Version: 6.00 Build 0)  -->
<!DOCTYPE svg PUBLIC "-//W3C//DTD SVG 1.1//EN" "http://www.w3.org/Graphics/SVG/1.1/DTD/svg11.dtd">
<svg version="1.1" id="Layer_1" xmlns="http://www.w3.org/2000/svg" xmlns:xlink="http://www.w3.org/1999/xlink" x="0px" y="0px"
	 width="20px" height="20px" viewBox="0 0 20 20" enable-background="new 0 0 20 20" xml:space="preserve">
<path display="none" fill="#80AF45" d="M22.904,9.731c0-6.973-5.652-12.625-12.625-12.625c-6.973,0-12.625,5.652-12.625,12.625
	S3.307,22.356,10.28,22.356C17.252,22.356,22.904,16.704,22.904,9.731"/>
<path fill="#FFFFFF" d="M17.578,5.396c0,0-3.355,2.023-3.391,8.37h-1.625C12.562,13.767,12.346,8.898,17.578,5.396"/>
<path fill="#FFFFFF" d="M12.982,13.767h-2.405c0,0,1.586-8.87-4.547-12.464C6.031,1.303,13.97,4.259,12.982,13.767"/>
<path fill="#FFFFFF" d="M10.578,13.767H8.124c0,0,2.454-8.37,11.042-11.418C19.166,2.349,11.878,5.987,10.578,13.767"/>
<path fill="#FFFFFF" d="M9.567,13.767h-1.84c0,0-0.397-6.232-4.511-11.69C3.217,2.076,9.64,7.579,9.567,13.767"/>
<path fill="#FFFFFF" d="M8.124,13.767H6.386c0,0-1.031-5.005-4.637-8.552C1.749,5.215,7.093,8.308,8.124,13.767"/>
<path fill="#FFFFFF" d="M-0.94,8.85c0.682,0,1.278-0.44,1.589-1.089C0.958,8.409,1.555,8.85,2.236,8.85
	c0.682,0,1.277-0.44,1.587-1.089C4.134,8.409,4.73,8.85,5.413,8.85c0.683,0,1.278-0.44,1.589-1.089
	C7.312,8.409,7.908,8.85,8.589,8.85c0.717,0,1.339-0.486,1.634-1.189c0.321,0.6,0.892,0.999,1.542,0.999
	c0.683,0,1.277-0.439,1.589-1.088c0.31,0.648,0.905,1.088,1.587,1.088c0.7,0,1.311-0.463,1.613-1.14
	c0.316,0.623,0.898,1.041,1.564,1.041c0.682,0,1.276-0.44,1.588-1.089c0.311,0.648,0.906,1.089,1.59,1.089
	c0.656,0,1.229-0.413,1.548-1.024c-0.037-0.388-0.095-0.77-0.166-1.147c-0.007,0.021-0.023,0.035-0.023,0.057
	c0,0.918-0.61,1.664-1.358,1.664c-0.752,0-1.361-0.746-1.361-1.664c0-0.124-0.104-0.225-0.229-0.225
	c-0.127,0-0.229,0.101-0.229,0.225c0,0.918-0.608,1.664-1.358,1.664S16.76,7.363,16.76,6.445c0-0.124-0.102-0.225-0.229-0.225
	c-0.126,0-0.228,0.101-0.228,0.225v0.099c0,0.919-0.611,1.664-1.361,1.664c-0.749,0-1.357-0.745-1.357-1.664
	c0-0.124-0.104-0.225-0.229-0.225c-0.127,0-0.229,0.101-0.229,0.225c0,0.919-0.609,1.664-1.359,1.664
	c-0.749,0-1.358-0.745-1.358-1.664c0-0.124-0.102-0.225-0.229-0.225c-0.126,0-0.229,0.101-0.229,0.225v0.19
	c0,0.918-0.61,1.664-1.36,1.664S7.23,7.652,7.23,6.734c0-0.124-0.103-0.225-0.229-0.225c-0.127,0-0.229,0.101-0.229,0.225
	c0,0.918-0.61,1.664-1.36,1.664s-1.36-0.746-1.36-1.664c0-0.124-0.102-0.225-0.229-0.225c-0.126,0-0.229,0.101-0.229,0.225
	c0,0.918-0.609,1.664-1.358,1.664c-0.75,0-1.359-0.746-1.359-1.664c0-0.124-0.103-0.225-0.229-0.225
	c-0.127,0-0.229,0.101-0.229,0.225c0,0.918-0.61,1.664-1.36,1.664c-0.62,0-1.139-0.513-1.302-1.209
	C-2.279,7.49-2.298,7.797-2.314,8.104C-1.98,8.557-1.492,8.85-0.94,8.85"/>
<path fill="#FFFFFF" d="M-1.162,14.043h22.883c0.07-0.151,0.146-0.297,0.211-0.451H-1.373C-1.309,13.746-1.232,13.892-1.162,14.043"
	/>
<path fill="#FFFFFF" d="M14.174,16.597h0.515c0.313,0,0.513-0.015,0.601-0.041c0.084-0.027,0.154-0.082,0.207-0.164
	c0.055-0.083,0.081-0.193,0.081-0.329c0-0.132-0.026-0.237-0.081-0.317c-0.053-0.08-0.126-0.134-0.217-0.164
	c-0.064-0.021-0.252-0.031-0.562-0.031h-0.543V16.597z M13.482,18.976v-4.123h1.46c0.373,0,0.64,0.037,0.8,0.112
	c0.16,0.072,0.292,0.201,0.395,0.384s0.154,0.401,0.154,0.657c0,0.321-0.078,0.583-0.236,0.778c-0.156,0.197-0.381,0.321-0.67,0.372
	c0.148,0.105,0.271,0.219,0.369,0.344s0.229,0.35,0.396,0.672l0.417,0.804H15.74l-0.501-0.897c-0.181-0.323-0.303-0.527-0.368-0.608
	c-0.064-0.081-0.134-0.139-0.207-0.169c-0.07-0.031-0.188-0.046-0.348-0.046h-0.143v1.721H13.482z"/>
<path fill="#FFFFFF" d="M3.991,17.565L4.8,17.487c0.048,0.271,0.146,0.471,0.295,0.597c0.149,0.128,0.35,0.19,0.602,0.19
	c0.268,0,0.469-0.056,0.605-0.169c0.135-0.113,0.204-0.246,0.204-0.396c0-0.098-0.029-0.18-0.086-0.247
	c-0.057-0.069-0.157-0.129-0.299-0.18c-0.098-0.032-0.319-0.093-0.665-0.18c-0.445-0.109-0.758-0.245-0.938-0.405
	c-0.252-0.227-0.378-0.502-0.378-0.828c0-0.209,0.059-0.403,0.178-0.586c0.119-0.183,0.29-0.32,0.513-0.417
	c0.224-0.095,0.494-0.143,0.81-0.143c0.517,0,0.905,0.113,1.166,0.339c0.261,0.227,0.398,0.528,0.411,0.906l-0.831,0.036
	c-0.035-0.211-0.111-0.363-0.228-0.455c-0.117-0.092-0.293-0.141-0.526-0.141c-0.242,0-0.431,0.052-0.567,0.149
	c-0.088,0.064-0.132,0.149-0.132,0.255c0,0.097,0.041,0.181,0.124,0.25c0.104,0.087,0.359,0.179,0.762,0.274
	c0.405,0.096,0.704,0.194,0.898,0.296c0.193,0.103,0.344,0.241,0.453,0.418c0.111,0.177,0.165,0.395,0.165,0.655
	c0,0.233-0.066,0.454-0.196,0.659c-0.132,0.206-0.316,0.36-0.556,0.459c-0.24,0.101-0.538,0.15-0.895,0.15
	c-0.52,0-0.92-0.12-1.198-0.36C4.211,18.376,4.045,18.025,3.991,17.565"/>
<polygon fill="#FFFFFF" points="12.199,14.853 11.568,17.722 10.846,14.853 9.859,14.853 9.106,17.676 8.486,14.853 7.636,14.853 
	8.618,18.961 9.52,18.961 10.336,15.89 11.156,18.961 12.037,18.961 13.035,14.853 "/>
</svg>
