<?xml version="1.0" encoding="utf-8"?>
<!-- Generator: Adobe Illustrator 16.0.0, SVG Export Plug-In . SVG Version: 6.00 Build 0)  -->
<!DOCTYPE svg PUBLIC "-//W3C//DTD SVG 1.1//EN" "http://www.w3.org/Graphics/SVG/1.1/DTD/svg11.dtd">
<svg version="1.1" id="Layer_1" xmlns="http://www.w3.org/2000/svg" xmlns:xlink="http://www.w3.org/1999/xlink" x="0px" y="0px"
	 width="20px" height="20px" viewBox="0 0 20 20" enable-background="new 0 0 20 20" xml:space="preserve">
<path display="none" fill="#F9AF19" d="M22.947,9.53c0-6.972-5.652-12.624-12.625-12.624C3.349-3.094-2.303,2.559-2.303,9.53
	s5.652,12.625,12.625,12.625C17.295,22.155,22.947,16.502,22.947,9.53"/>
<polygon fill="#FFFFFF" points="2.222,13.695 2.222,6.654 0.158,6.654 0.158,5.221 5.679,5.221 5.679,6.654 3.622,6.654 
	3.622,13.695 "/>
<path fill="#FFFFFF" d="M7.98,6.654v5.607h1.051c0.452,0,0.778-0.041,0.98-0.126c0.202-0.087,0.368-0.213,0.498-0.386
	c0.129-0.17,0.236-0.44,0.32-0.81c0.086-0.372,0.127-0.857,0.127-1.462c0-0.626-0.043-1.123-0.13-1.483
	c-0.087-0.363-0.221-0.646-0.403-0.854c-0.183-0.208-0.406-0.346-0.669-0.413C9.558,6.68,9.178,6.654,8.614,6.654H7.98z M6.58,5.221
	h2.559c0.646,0,1.135,0.072,1.464,0.217c0.33,0.144,0.633,0.388,0.909,0.73c0.277,0.343,0.495,0.788,0.652,1.335
	c0.158,0.547,0.238,1.229,0.238,2.042c0,0.732-0.083,1.369-0.25,1.909c-0.164,0.542-0.376,0.974-0.629,1.29
	c-0.254,0.313-0.562,0.55-0.921,0.713c-0.36,0.159-0.823,0.238-1.389,0.238H6.58V5.221z"/>
<path fill="#FFFFFF" d="M14.997,8.805h1.041c0.635,0,1.041-0.028,1.215-0.083c0.172-0.056,0.312-0.169,0.422-0.338
	c0.106-0.169,0.161-0.396,0.161-0.677c0-0.27-0.055-0.486-0.161-0.651c-0.109-0.163-0.256-0.275-0.44-0.337
	c-0.131-0.042-0.51-0.064-1.139-0.064h-1.099V8.805z M13.599,13.695V5.221h2.953c0.756,0,1.294,0.075,1.619,0.229
	c0.323,0.152,0.59,0.416,0.798,0.792c0.207,0.375,0.312,0.825,0.312,1.35c0,0.663-0.16,1.197-0.478,1.602
	c-0.318,0.405-0.771,0.659-1.355,0.762c0.3,0.217,0.55,0.452,0.747,0.709c0.193,0.256,0.463,0.715,0.803,1.378l0.844,1.653h-1.675
	l-1.015-1.843c-0.365-0.668-0.613-1.085-0.744-1.253c-0.131-0.166-0.271-0.284-0.417-0.346c-0.146-0.064-0.381-0.096-0.705-0.096
	h-0.289v3.538H13.599z"/>
</svg>
