<?xml version="1.0" encoding="utf-8"?>
<!-- Generator: Adobe Illustrator 16.0.0, SVG Export Plug-In . SVG Version: 6.00 Build 0)  -->
<!DOCTYPE svg PUBLIC "-//W3C//DTD SVG 1.1//EN" "http://www.w3.org/Graphics/SVG/1.1/DTD/svg11.dtd">
<svg version="1.1" id="Layer_1" xmlns="http://www.w3.org/2000/svg" xmlns:xlink="http://www.w3.org/1999/xlink" x="0px" y="0px"
	 width="20px" height="20px" viewBox="0 0 20 20" enable-background="new 0 0 20 20" xml:space="preserve">
<path display="none" fill="#2CA9E1" d="M22.522,9.5c0-6.973-5.653-12.627-12.627-12.627C2.922-3.127-2.732,2.527-2.732,9.5
	c0,6.974,5.654,12.627,12.627,12.627C16.869,22.127,22.522,16.474,22.522,9.5"/>
<polygon fill="#FFFFFF" points="3.456,9.131 3.456,1.539 1.132,1.539 1.132,0.525 6.725,0.525 6.725,1.539 4.39,1.539 4.39,9.131 
	"/>
<path fill="#FFFFFF" d="M7.331,9.132h0.863V2.896H7.331V9.132z M7.331,1.74h0.863V0.525H7.331V1.74z"/>
<path fill="#FFFFFF" d="M11.446,8.186l0.118,0.935c-0.24,0.062-0.454,0.093-0.646,0.093c-0.302,0-0.544-0.06-0.727-0.179
	c-0.185-0.119-0.312-0.282-0.381-0.49c-0.068-0.208-0.103-0.62-0.103-1.238V3.717H9.074V2.896h0.634V1.352l0.863-0.635v2.179h0.875
	v0.821h-0.875v3.646c0,0.338,0.026,0.555,0.076,0.652c0.075,0.141,0.215,0.211,0.417,0.211C11.162,8.227,11.29,8.213,11.446,8.186"
	/>
<rect x="12.234" y="0.525" fill="#FFFFFF" width="0.863" height="8.606"/>
<path fill="#FFFFFF" d="M15.099,5.416h2.854c-0.042-0.542-0.156-0.945-0.347-1.21c-0.279-0.389-0.634-0.583-1.064-0.583
	c-0.388,0-0.718,0.161-0.991,0.486C15.276,4.43,15.126,4.866,15.099,5.416 M17.947,7.123l0.892,0.136
	c-0.15,0.664-0.419,1.167-0.809,1.504c-0.389,0.341-0.872,0.509-1.446,0.509c-0.725,0-1.312-0.274-1.759-0.825
	c-0.447-0.549-0.672-1.344-0.672-2.381c0-1.077,0.225-1.897,0.678-2.463c0.45-0.564,1.023-0.848,1.717-0.848
	c0.662,0,1.215,0.277,1.657,0.833c0.442,0.555,0.663,1.36,0.663,2.413l-0.006,0.283h-3.816c0.032,0.7,0.197,1.229,0.487,1.584
	c0.289,0.356,0.641,0.534,1.056,0.534C17.238,8.403,17.691,7.976,17.947,7.123"/>
<path fill="#FFFFFF" d="M7.735,17.453l0.909-0.096c0.07,0.55,0.229,0.957,0.479,1.226c0.248,0.268,0.536,0.402,0.865,0.402
	c0.411,0,0.765-0.19,1.062-0.567c0.297-0.378,0.446-0.895,0.446-1.548c0-0.617-0.145-1.094-0.432-1.435
	c-0.287-0.338-0.649-0.508-1.082-0.508c-0.264,0-0.509,0.072-0.738,0.222c-0.229,0.146-0.409,0.352-0.543,0.615l-0.816-0.131
	l0.688-4.423h3.505v1.01H9.263l-0.377,2.315c0.419-0.36,0.862-0.542,1.332-0.542c0.592,0,1.104,0.252,1.541,0.756
	c0.437,0.503,0.655,1.182,0.655,2.035c0,0.844-0.219,1.565-0.655,2.166c-0.438,0.602-1.021,0.902-1.758,0.902
	c-0.61,0-1.127-0.214-1.546-0.636C8.033,18.792,7.793,18.202,7.735,17.453"/>
</svg>
