<?xml version="1.0" encoding="utf-8"?>
<!-- Generator: Adobe Illustrator 16.0.0, SVG Export Plug-In . SVG Version: 6.00 Build 0)  -->
<!DOCTYPE svg PUBLIC "-//W3C//DTD SVG 1.1//EN" "http://www.w3.org/Graphics/SVG/1.1/DTD/svg11.dtd">
<svg version="1.1" id="Layer_1" xmlns="http://www.w3.org/2000/svg" xmlns:xlink="http://www.w3.org/1999/xlink" x="0px" y="0px"
	 width="20px" height="20px" viewBox="0 0 20 20" enable-background="new 0 0 20 20" xml:space="preserve">
<path display="none" fill="#2CA9E1" d="M9.896-3.094c-6.969,0-12.627,5.658-12.627,12.627c0,6.978,5.658,12.626,12.627,12.626
	c6.978,0,12.627-5.648,12.627-12.626C22.522,2.564,16.873-3.094,9.896-3.094 M17.233,9.229c-0.406,0.157-0.019,1.117-0.342,1.366
	h-0.138c-0.139,0.295-0.019,0.84-0.129,1.163c-0.093,0.019-0.065,0.166-0.074,0.277c-0.01,0.055-0.065,0.064-0.065,0.129
	c-0.101,0.064-0.147,0.176-0.138,0.342c-0.065,0.119-0.166,0.203-0.203,0.341c-0.286,0.268-0.518,0.582-0.895,0.757
	c-0.111-0.009-0.177,0.046-0.205,0.129c-0.138-0.027-0.174,0.057-0.267,0.074C14.77,13.898,14.77,14,14.842,14.01v0.139
	c0.314,1.873,0.776,3.6,1.164,5.398H5.558v-0.683c0.074-0.101,0.258-0.11,0.341-0.212c0.074-0.009,0.056-0.119,0.065-0.203
	c0.148,0.01,0.028-0.24,0.065-0.342c0.036-0.102,0.101-0.166,0.138-0.268c0.129-0.268,0.471-0.313,0.48-0.682
	c-0.037-0.148,0.083-0.453-0.065-0.48c-0.009-0.406-0.037-0.795-0.138-1.1c0-0.063-0.083-0.045-0.139-0.063
	c-0.286-0.103-0.406-0.36-0.618-0.545c-0.101-0.056-0.138-0.175-0.129-0.341c-0.028-0.297-0.037-0.61-0.139-0.822
	c-0.027-0.083-0.046-0.176-0.064-0.258c0.009-0.065,0.009-0.12-0.028-0.139c-0.018-0.13-0.028-0.259-0.037-0.397
	c0-0.056,0.009-0.11-0.018-0.138c-0.056-0.877,0.018-1.883-0.268-2.483c-0.092-0.203-0.249-0.249-0.406-0.341V9.985
	C4.579,9.764,4.644,9.478,4.532,9.367H3.369c0-0.064-0.083-0.055-0.138-0.064C3.24,9.237,3.204,9.237,3.167,9.229
	C3.121,6.357,3.25,3.312,3.092,0.553C2.789,0.524,2.908,0.054,2.889-0.27c0.037-0.092,0.102-0.166,0.203-0.203h4.172
	c0.213,0.148,0.111,0.609,0.13,0.96C7.301,0.479,7.2,0.47,7.191,0.553C6.988,3.358,7.264,6.634,7.052,9.432
	C7.912,9.284,9.424,9.8,9.655,9.025h7.375c0.093,0.018,0.111,0.12,0.203,0.138V9.229z"/>
<path fill="#FFFFFF" d="M16.848,9.905v0.063c-0.396,0.152-0.018,1.085-0.333,1.329h-0.134c-0.135,0.287-0.018,0.817-0.125,1.132
	c-0.091,0.018-0.063,0.162-0.072,0.271c-0.01,0.053-0.063,0.062-0.063,0.125c-0.099,0.062-0.144,0.17-0.135,0.332
	c-0.063,0.117-0.161,0.197-0.197,0.332c-0.278,0.262-0.504,0.565-0.87,0.737c-0.108-0.01-0.173,0.045-0.2,0.125
	c-0.134-0.026-0.169,0.054-0.259,0.072c-0.009,0.089-0.009,0.189,0.062,0.197v0.136c0.306,1.822,0.755,3.503,1.133,5.254H5.486
	v-0.664c0.072-0.1,0.25-0.108,0.332-0.207c0.072-0.01,0.055-0.116,0.063-0.198c0.144,0.01,0.027-0.232,0.063-0.332
	c0.035-0.1,0.098-0.162,0.134-0.261c0.125-0.261,0.458-0.304,0.467-0.665c-0.036-0.143,0.081-0.439-0.063-0.467
	c-0.009-0.395-0.036-0.771-0.134-1.069c0-0.062-0.081-0.044-0.135-0.062c-0.278-0.099-0.395-0.35-0.601-0.529
	c-0.099-0.054-0.135-0.171-0.125-0.333c-0.028-0.286-0.036-0.593-0.136-0.799c-0.026-0.081-0.044-0.171-0.062-0.252
	c0.008-0.062,0.008-0.117-0.028-0.134c-0.017-0.126-0.027-0.253-0.036-0.387c0-0.054,0.009-0.107-0.018-0.134
	c-0.054-0.854,0.018-1.833-0.261-2.417c-0.089-0.197-0.242-0.243-0.395-0.333v-0.062c-0.018-0.216,0.045-0.494-0.063-0.603H3.356
	c0-0.063-0.08-0.053-0.134-0.063C3.23,9.977,3.195,9.977,3.159,9.968C3.114,7.174,3.24,4.21,3.086,1.524
	C2.791,1.498,2.908,1.04,2.889,0.726c0.036-0.091,0.099-0.162,0.197-0.198h4.06C7.354,0.671,7.255,1.12,7.273,1.462
	C7.183,1.453,7.084,1.443,7.076,1.524c-0.198,2.73,0.071,5.919-0.136,8.641c0.836-0.144,2.309,0.359,2.533-0.395h7.177
	C16.74,9.788,16.759,9.888,16.848,9.905"/>
</svg>
